<svg xmlns="http://www.w3.org/2000/svg" version="1.1" xmlns:xlink="http://www.w3.org/1999/xlink" width="1000" height="1000"><g clip-path="url(#SvgjsClipPath2151)"><rect width="1000" height="1000" fill="#ffffff"></rect><g transform="matrix(5.70960202805064,0,0,5.70960202805064,113.486892022544,50)"><svg xmlns="http://www.w3.org/2000/svg" version="1.1" xmlns:xlink="http://www.w3.org/1999/xlink" width="135.39056" height="157.6292"><svg width="135.39056" height="157.6292" viewBox="0 0 135.39057 157.62919" version="1.1" id="svg28" sodipodi:docname="image (2).svg" inkscape:export-filename="image (2).svg" inkscape:export-xdpi="96" inkscape:export-ydpi="96" xmlns:inkscape="http://www.inkscape.org/namespaces/inkscape" xmlns:sodipodi="http://sodipodi.sourceforge.net/DTD/sodipodi-0.dtd" xmlns="http://www.w3.org/2000/svg" xmlns:svg="http://www.w3.org/2000/svg">
  <defs id="defs32"><clipPath id="SvgjsClipPath2151"><rect width="1000" height="1000" x="0" y="0" rx="350" ry="350"></rect></clipPath></defs>
  <sodipodi:namedview id="namedview30" pagecolor="#ffffff" bordercolor="#000000" borderopacity="0.25" inkscape:showpageshadow="2" inkscape:pageopacity="0.0" inkscape:pagecheckerboard="0" inkscape:deskcolor="#d1d1d1" showgrid="false"></sodipodi:namedview>
  <path d="m 67.38528,0 c 1.9869,0.63453 17.10134,10.32881 20.30693,12.29247 15.7141,9.60806 31.52216,19.06209 47.42129,28.36112 0.72559,24.76125 -0.30807,50.60944 0.27706,75.55185 -6.62141,5.68656 -21.75813,14.21156 -29.78616,19.05337 -11.54072,6.96241 -25.62537,16.46778 -37.5439,22.37038 -2.75707,-1.12375 -8.62672,-4.80597 -11.41091,-6.47416 L 36.07043,138.76084 C 27.2955,133.44628 7.54946,122.33375 0.49406,116.74987 -0.5735,93.03487 0.53766,65.45069 0,40.98781 21.28634,27.2645 46.97081,14.29875 67.38528,0 Z M 15.53487,49.68331 c 0.0678,19.32656 -0.32841,39.35063 -0.0126,58.57547 16.75259,9.56834 32.31072,19.84872 48.77075,29.61856 -0.7101,-7.81781 -0.11335,-19.43119 -0.30516,-27.64909 l 0.0988,-6.43153 -15.08537,0.0174 c 0.37394,2.92563 0.21894,4.65194 0.0659,7.55335 -5.71756,-2.92757 -12.53272,-7.12903 -18.01778,-10.62622 -0.0872,-4.526 -0.24509,-9.22347 -0.14822,-13.73591 L 59.20129,86.799 c -0.093,-5.17313 -0.11528,-10.34722 -0.0669,-15.52131 -9.38525,-0.0581 -18.7705,-0.0523 -28.15575,0.0155 L 30.90894,57.7239 c 5.4841,-3.35284 12.64703,-7.54753 18.34038,-10.50221 l 0.11528,7.43515 c 4.92416,-0.29547 9.64487,-0.248 14.56806,-0.2354 0.0116,-3.55435 0.36619,-33.06441 -0.34584,-33.81519 C 47.9076,29.17 31.17438,40.44334 15.53488,49.68328 Z M 72.34721,20.66537 c -0.11334,39.03288 0.76919,78.34766 0.25963,117.38344 10.52934,-7.51847 36.25644,-23.54838 47.6315,-29.28822 l 0.0988,-15.91462 c -4.83503,0.27996 -9.76984,0.26931 -14.6194,0.32065 0.0475,2.14869 0.30418,4.92222 -0.54444,6.86263 -5.70206,3.20656 -12.51044,7.84397 -17.9616,10.57197 0.72075,-21.32316 0.0184,-42.04569 -0.0542,-63.26422 5.2855,2.81809 12.59763,6.87812 17.53535,10.50997 1.06756,0.78565 0.84087,4.59284 0.78178,6.0295 4.62094,0.0145 10.11762,-0.10754 14.66687,0.15112 0.0339,-4.56572 0.14241,-9.331 0.0717,-13.87928 C 104.96508,40.95584 87.59055,28.98693 72.34726,20.66537 Z" id="path10" style="stroke-width:0.96875"></path>
</svg></svg></g></g></svg>