<?xml version="1.0" encoding="utf-8" ?>
<svg xmlns="http://www.w3.org/2000/svg" width="210" height="230"
     viewBox="-100 -100 619 661"
>
    <path transform="scale(0.40918 0.409051)"
          d="M345.217 33.823C294.856 -16.3851 407.612 0.11565 352.294 34.6117C352.104 53.3601 351.718 73.6338 352.322 92.3253C404.591 61.2067 457.101 30.5001 509.85 0.205651C565.545 32.3735 624.282 65.0506 678.791 99.0611C678.54 121.734 679.087 143.848 678.945 166.199C701.935 153.442 727.376 139.921 749.359 125.862L749.303 109.2C722.332 93.7914 740.653 65.9743 762.557 80.5543C774.94 88.7988 764.489 101.685 755.295 108.082L755.506 130.478C730.079 146.008 703.824 160.351 678.265 175.777C679.208 191.832 679.253 221.435 678.606 237.829C706.587 221.021 734.722 204.47 763.009 188.182C773.713 181.991 792.943 170.107 803.676 165.228C818.176 171.289 843.929 187.003 858.412 195.546L943.525 246.064C953.289 242.703 961.998 240.439 972.034 245.465C977.056 247.94 980.861 252.345 982.578 257.674C987.159 271.875 977.923 282.948 968.606 292.154C969.828 313.479 969.276 338.75 969.269 360.412L969.186 464.073C960.608 468.857 917.961 491.478 915.167 497.105C916.957 506.789 916.252 539.45 916.171 550.489C921.51 547.358 935.702 540.975 935.863 535.919C936.436 517.919 945.353 516.898 962.438 523.304C977.286 515.678 989.588 508.528 1003.94 499.954L1003.87 393.967C968.187 376.948 1009.87 343.314 1022.9 374.314C1026.12 381.986 1016.14 390.73 1010.63 394.825C1010.46 411.442 1013.89 497.47 1007.03 504.826C997.913 514.596 978.614 522.499 966.745 528.899C967.751 550.122 954.975 559.527 937.674 546.117C922.278 555.839 907.037 565.384 890.946 573.946C913.813 588.592 937.03 602.689 960.577 616.22C973.488 623.728 1000.37 638.566 1010.95 647.097L1011.02 764.121C1028.23 774.987 1028.5 787.229 1010.8 797.392C1010.67 821.228 1010.25 844.68 1010.99 868.523C988.144 885.187 941.638 909.674 915.534 924.42C880.831 944.023 839.857 970.588 805.149 988.306C764.2 964.146 718.149 936.122 676.508 913.85C677.631 951.328 677.382 990.582 677.922 1028.3C653.727 1045.17 617.473 1065.49 591.736 1081.08C571.815 1093.15 531.103 1117.18 510.212 1126.79C494.678 1119.91 469.439 1104.6 453.923 1095.52C416.929 1073.63 380.078 1051.49 343.379 1029.11C344.513 1015.46 343.722 991.979 343.68 977.179L343.221 877.035C321.651 890.386 297.839 903.384 275.709 916.824L275.51 1007.71C301.289 1018.47 287.099 1041.75 269.965 1040.08C266.228 1039.7 262.821 1037.78 260.565 1034.77C251.253 1022.49 259.734 1014.19 269.387 1007.18C268.774 982.089 268.236 945.309 269.586 920.69C253.337 929.086 233.285 940.393 218.217 950.591C209.752 946.641 201.887 942.204 193.851 937.449C155.547 914.778 116.603 892.442 79.2794 868.189C77.5937 868.942 75.8913 869.653 74.1676 870.316C53.3653 878.15 40.9989 868.779 34.9093 849.144C39.1237 835.038 40.9444 833.015 53.3913 825.427L53.4126 681.695C37.471 668.396 28.4644 647.142 52.018 632.917C59.3767 628.474 70.5782 631.986 78.1524 635.338C89.0626 628.929 99.7953 622.221 110.341 615.225C97.5839 608.802 75.8818 595.69 63.6764 588.194C51.7576 594.222 27.1953 609.792 17.244 617.885C18.3686 642.216 17.7081 672.572 17.5092 697.104L11.8362 697.142L11.706 612.407C22.1853 603.914 50.7916 586.83 62.9188 580.007C80.6219 590.781 98.3865 601.448 116.213 612.011C130.464 602.552 150.061 590.499 164.705 582.067C156.475 579.469 124.803 560.001 115.699 554.605C80.8281 534.076 46.1441 513.229 11.6494 492.07C12.0898 465.963 12.265 439.851 12.1751 413.737C12.168 405.452 12.8143 386.751 11.8696 379.889C-5.88082 368.535 -2.21803 360.111 12.9327 349.597C13.0582 335.709 12.2011 321.742 12.0803 307.809C11.5121 283.019 11.8578 258.458 11.6494 233.713C69.0655 196.86 131.754 165.649 189.807 129.446C199.534 123.382 210.749 116.692 220.817 111.206C234.843 118.882 249.25 128.24 263.172 136.482C289.654 152.055 316.345 167.276 343.233 182.138C342.082 172.376 342.454 157.646 342.522 147.571C342.795 108.291 346.1 73.4656 345.217 33.823L345.217 33.823ZM17.6018 238.132C17.6894 258.996 17.6444 279.859 17.4644 300.723C17.8693 317.47 17.3105 334.094 17.6112 350.729C30.8773 358.114 35.1509 373.478 19.2212 379.065C16.4321 389.671 17.7793 469.494 17.8669 486.438C55.5934 509.842 96.1706 532.51 133.064 556.124C133.483 543.04 132.235 527.364 133.914 515.112C128.324 509.624 65.2843 474.648 52.0348 466.176C51.405 415.525 52.1153 364.855 51.9046 314.199C51.8762 307.177 52.0538 300.171 52.4208 293.158C21.5534 266.98 39.7348 235.972 77.3737 247.642L152.597 203.241C173.402 191.136 196.844 178.164 216.787 165.199C227.692 170.632 245.414 181.629 256.607 188.095C285.438 204.761 314.113 221.7 342.624 238.912C342.821 222.809 342.925 206.706 342.934 190.603C301.938 167.338 261.219 143.595 220.781 119.375C186.694 138.543 152.749 159.406 118.898 179.216C87.0148 197.876 47.8369 217.731 17.6018 238.132ZM965.514 680.063C969.828 731.24 966.48 801.269 967.361 854.149C913.475 884.114 858.767 919.69 804.197 947.891C783.485 939.185 735.535 909.544 714.941 897.32L714.997 928.28C744.664 945.624 777.44 963.478 806.316 981.307C871.974 940.499 938.484 904.206 1005.1 865.276C1004.9 842.698 1004.87 820.117 1005.02 797.537C986.69 785.818 986.375 773.407 1005.98 763.28L1011.02 764.121L1010.95 647.097C1000.37 638.566 973.488 623.728 960.577 616.22C937.031 602.689 913.813 588.592 890.946 573.946C907.037 565.384 922.278 555.839 937.675 546.117C954.975 559.527 967.751 550.122 966.745 528.899C978.614 522.499 997.913 514.596 1007.03 504.826C1013.89 497.47 1010.46 411.442 1010.63 394.825C1016.14 390.73 1026.12 381.986 1022.9 374.314C1009.87 343.314 968.187 376.948 1003.87 393.967L1003.94 499.954C989.588 508.528 977.286 515.678 962.438 523.304C945.353 516.898 936.436 517.919 935.863 535.919C935.702 540.975 921.51 547.358 916.171 550.489C916.252 539.45 916.957 506.789 915.168 497.105C912.942 498.266 911.296 499.319 908.9 500.009C902.456 500.468 849.368 536.482 835.834 541.451C832.325 542.905 831.733 542.775 829.517 545.878C824.171 550.281 818.789 553.066 812.796 556.505C821.398 562.402 853.575 580.53 858.13 585.132L860.614 587.846C861.338 587.818 863.697 587.775 864.308 587.64C880.718 600.479 921.075 621.383 941.846 635.38C949.83 631.607 952.925 630.776 961.775 630.771C964.595 632.069 968.106 633.523 970.704 635.096C983.098 648.587 982.573 665.09 968.724 677.439C967.701 678.369 966.629 679.243 965.514 680.063L965.514 680.063ZM137.977 557.151C143.214 563.425 162.167 572.717 170.471 579.052C173.932 575.89 198.035 562.487 205.848 556.858C197.815 552.021 142.425 517.44 138.052 518.08C138.318 525.805 138.9 549.625 137.977 557.151ZM504.315 202.27C458.855 174.907 395.648 141.413 353.923 112.327L353.804 188.58C356.582 190.226 359.499 192.138 362.25 193.874C376.489 201.836 395.437 211.86 408.711 220.644C408.427 239.632 408.303 258.622 408.337 277.609C408.327 285.671 408.67 304.604 407.449 311.603C409.184 318.777 436.443 332.194 443.624 336.438L443.998 272.006C443.729 262.802 443.856 254.07 444.006 244.859C443.859 238.831 443.582 232.408 443.662 226.411C437.746 221.85 432.601 218.169 431.246 210.204C430.591 206.509 431.512 202.708 433.787 199.724C438.75 193.175 451.722 190.345 456.893 196.14C469.087 209.806 458.441 219.45 448.734 226.165C448.654 239.13 448.848 253.378 448.429 266.238C448.774 277.32 448.857 288.407 448.677 299.493L449.802 339.972C454.334 342.719 475.889 355 477.913 357.955C476.67 361.281 477.04 359.94 473.372 362.714C463.167 365.018 460.842 355.445 452.707 355.606C449.584 357.934 450.552 358.043 449.643 363.339C449.766 365.674 449.863 368.009 449.939 370.347C450.122 374.833 450.429 374.833 447.849 378.717L446.591 377.313L448.201 378.807L448.628 378.459L447.1 378.544C442.296 370.939 443.76 359.739 444.082 350.796C439.365 344.972 416.531 332.912 408.744 329.082L408.64 345.99C417.052 350.945 429.35 360.556 420.86 370.939C403.424 392.262 373.205 362.652 402.636 347.731L402.541 325.676C396.238 321.993 387.177 317.036 381.4 312.996C381.885 348.333 382.165 383.672 382.241 419.013C378.469 421.517 374.692 424.153 370.717 426.296L371.686 306.594C365.03 302.475 354.162 296.159 348.336 291.562C312.548 311.887 277.374 333.468 241.376 353.15C242.058 373.137 240.384 375.458 223.012 385.346C223.071 437.835 223.758 493.839 222.574 546.181C259.325 523.148 298.936 501.193 334.944 478.091L333.992 492.041C303.151 511.038 258.371 540.428 227.582 556.566C261.437 578.839 298.236 596.851 332.077 619.062C335.664 621.414 335.048 625.483 334.629 629.251C325.675 632.704 262.413 590.724 250.106 584.132C242.46 580.04 224.942 568.66 217.803 563.47C210.071 567.977 187.817 580.397 181.509 585.575C210.099 602.668 248.576 625.582 275.918 643.949L271.869 648.594C253.077 639.186 190.551 601.157 174.863 588.478C168.149 593.334 134.229 614.361 126.861 617.8C142.592 626.679 159.893 636.332 175.091 646.104C179.236 643.042 187.303 638.057 192.41 640.084C228.889 654.581 182.12 699.948 173.076 653.162C159.592 645.176 132.345 630.184 120.632 621.684C110.773 627.652 96.5265 636.771 86.471 641.398C87.7614 651.073 87.4772 658.835 87.3707 668.614C130.614 692.784 173.497 717.593 216.004 743.034C253.12 721.704 316.088 682.178 356.109 660.033C357.229 660.121 358.348 660.208 359.468 660.296C363.863 663.013 364.462 663.595 368.2 667.25C320.205 692.848 270.996 724.125 223.465 751.727L222.785 933.884C236.383 926.291 256.051 915.912 268.832 907.58C268.787 882.845 269.298 855.594 268.36 831.057C301.586 811.053 335.775 792.236 368.619 772.301C368.537 762.043 368.688 750.611 368.103 740.465C351.049 750.303 303.407 776.574 289.996 787.352C286.795 802.676 290.396 815.034 267.451 809.334C264.082 808.497 259.264 803.268 258.655 800.068C255.225 782.085 270.037 774.115 284.768 782.641C307.976 766.948 343.953 744.827 368.333 731.974C368.061 710.743 368.127 689.513 368.534 668.285L379.911 673.123C379.856 690.055 379.603 707.402 379.84 724.296C387.826 719.552 402.557 712.164 409.914 706.163C411.971 704.484 410.548 698.323 414.704 696.862C418.061 699.238 419.718 702.688 420.961 706.58C425.964 707.359 431.971 706.793 436.048 708.986C436.787 713.678 431.857 715.563 427.856 715.786C425.467 715.916 421.404 712.693 419.411 711.26C404.828 717.932 392.933 724.473 378.869 732.23C378.881 743.387 379.163 755.819 378.675 766.865C387.729 761.219 398.769 754.493 408.671 750.386C408.912 765.397 409.035 780.408 409.043 795.419C436.318 778.762 469.092 760.975 494.951 743.643L507.426 750.829C474.79 770.113 441.442 789.249 409.187 809.218C408.38 809.717 407.894 815.773 407.833 816.87C408.929 823.459 408.491 833.596 408.42 840.625L408.507 868.696C442.069 888.602 475.463 908.786 508.691 929.244C540.268 910.235 571.969 892.491 603.533 873.75C602.117 862 601.679 815.541 603.447 804.781C573.69 787.61 544.213 769.959 515.029 751.828C518.879 748.655 522.331 746.819 526.588 744.335C549.329 760.144 579.001 777.052 603.05 792.331C602.597 783.793 602.832 773.357 602.791 764.67C601.319 763.67 599.886 762.617 598.497 761.506C567.721 737.147 621.245 713.946 622.488 748.468C622.708 754.618 614.213 760.731 609.447 764.137L609.478 795.35C617.999 800.544 629.856 806.47 638.849 811.302L638.285 728.862C638.205 713.55 637.504 692.687 638.989 678.05L649.695 669.992L649.937 821.008C681.659 806.162 706.472 841.731 677.52 862.483C716.904 886.987 756.991 910.34 797.729 932.513C799.356 874.018 797.485 811.709 797.869 752.7C777.853 739.091 743.971 720.61 722.132 707.781L722.276 846.65C728.513 850.023 734.891 854.795 740.768 858.521C747.97 860.544 751.796 852.06 760.419 856.02C774.611 862.535 772.12 882.532 757.209 885.852C753.442 886.724 749.481 885.952 746.318 883.726C739.482 878.979 738.528 871.055 737.2 863.506C730.793 859.113 722.482 854.296 715.704 849.921C713.805 828.875 715.446 793.33 715.303 771.083C715.202 754.803 714.775 719.885 716.494 704.834C708.125 699.171 659.204 670.911 657.291 665.848C660.359 661.307 669.098 662.295 672.903 664.751C715.268 692.078 761.222 715.16 803.068 743.03C846.752 715.269 885.833 691.751 931.77 667.169C931.692 656.855 931.834 651.926 933.193 641.768C923.427 635.778 913.584 629.912 903.671 624.168C888.444 634.539 864.232 647.696 847.843 657.317C852.531 687.76 823.719 682.088 818.16 668.199C816.706 664.651 816.836 660.651 818.517 657.205C826.458 640.773 840.669 652.175 844.157 650.962C859.862 645.498 881.651 627.768 897.702 621.444C891.226 617.468 857.385 595.678 851.899 596.294L773.444 642.549C766.275 646.727 743.959 660.197 737.633 662.544L734.022 658.307C747.217 648.523 768.545 636.399 783.066 627.965C804.344 615.516 825.76 603.305 847.308 591.33C840.371 588.147 809.437 567.729 802.936 562.805C799.138 565.507 783.386 575.49 779.716 577.375C765.709 584.575 698.751 630.579 688.977 629.149C687.393 626.385 687.573 623.943 688.404 620.788C690.045 614.555 780.154 564.519 793.271 556.448C761.18 536.371 725.331 515.512 692.979 495.516C689.202 493.183 688.786 485.611 688.892 481.409L689.804 480.632C697.875 483.692 701.772 488.642 708.707 492.42C739.006 508.93 768.117 527.873 797.767 545.702L797.774 527.011C771.704 509.863 744.646 494.679 717.953 478.551C705.447 470.995 693.599 463.603 683.577 452.865C700.139 457.386 780.024 506 797.838 517.75L797.831 384.015C790.612 379.676 787.856 378.255 781.776 372.381C779.219 364.916 779.077 360.473 778.966 352.863C743.91 332.822 709.103 312.344 674.554 291.438C665.706 296.867 657.973 301.653 648.516 305.952C648.881 332.8 648.554 360.461 648.557 387.366C659.741 393.47 671.225 400.435 682.267 406.899C682.473 413.957 683.998 435.348 679.379 440.331C675.067 436.22 675.692 417.741 675.61 411.349C666.66 406.316 657.686 401.331 648.684 396.392C648.817 405.594 648.604 415.231 648.545 424.468L636.898 417.715L636.848 388.681C621.255 379.2 604.224 371.972 588.406 362.117C587.975 354.661 587.755 349.666 588.032 342.156C578.367 348.875 560.493 358.623 549.815 364.945L539.989 356.88C554.906 347.575 572.947 337.909 588.46 329.172L588.396 219.609L667.065 173.223C666.267 154.319 667.072 130.98 667.24 111.751C645.609 124.389 624.472 138.261 602.901 151.048C573.996 168.181 544.275 184.829 516.085 203.117C516.516 247.852 515.434 292.831 516.537 337.525C516.604 340.218 514.366 341.838 512.538 343.2C508.776 343.75 508.648 344.046 505.052 343.136C503.527 336.069 504.135 305.377 504.154 296.32L504.315 202.27ZM471.681 1092.01L504.218 1111.79C504.523 1054.69 504.528 997.59 504.232 940.492C473.696 919.479 437.62 901.773 407.456 881.509C394.484 891.054 368.939 905.83 354.051 912.706C355.265 924.323 354.562 942.643 354.465 954.71L353.963 1023.68C393.868 1043.83 433.017 1070.71 471.682 1092.01L471.681 1092.01ZM631.679 1043.55C643.146 1036.85 656.014 1029.72 666.879 1022.27C666.531 999.399 666.391 976.523 666.46 953.646C650.213 943.351 634.224 934.069 617.568 924.429C585.28 941.132 583.495 899.597 604.981 894.952C620.144 897.349 618.347 917.184 627.465 922.876C639.53 930.41 654.03 938.649 666.782 945.144C666.453 932.726 666.408 920.301 666.647 907.884C656.322 901.911 625.32 882.084 615.97 878.8C607.579 885.692 597.137 891.852 587.636 897.238C563.355 910.998 539.69 925.145 515.98 939.848C516.43 996.917 516.442 1053.99 516.011 1111.06L631.679 1043.55ZM204.522 543.751L210.83 546.681C212.184 542.183 211.351 493.955 211.284 485.789C210.974 452.162 210.965 418.533 211.256 384.906C194.233 376.879 194.055 372.803 193.231 354.957C176.785 344.47 155.919 333.629 138.54 323.819C139.516 338.833 138.999 359.682 138.483 374.961C154.797 385.299 155.552 395.327 139.39 407.069C138.434 439.73 139.068 471.737 138.741 504.364C159.47 516.682 184.696 530.834 204.522 543.751ZM62.5378 295.488L62.6396 459.952C70.0268 464.241 129.739 499.44 132.538 499.428C132.583 469.866 132.074 437.504 133.121 408.173C114.257 399.038 112.079 381.507 132.628 374.212L132.744 320.577C126.413 316.66 82.592 288.599 77.3263 289.267C72.5744 291.348 67.3821 293.774 62.5378 295.488L62.5378 295.488ZM831.991 654.479C828.705 654.986 825.944 657.227 824.775 660.343C823.605 663.458 824.204 666.963 826.344 669.509C828.485 672.058 831.833 673.251 835.102 672.633C840.039 671.702 843.318 666.982 842.468 662.027C841.621 657.075 836.959 653.714 831.991 654.479ZM595.117 224.18C595.224 256.758 595.669 289.979 595.345 322.503C596.834 323.5 596.159 323.436 597.168 323.396C609.354 315.966 624.73 307.155 637.47 300.623C637.392 287.888 637.196 275.156 636.881 262.423C646.962 255.682 657.581 249.778 668.099 243.734C668.049 235.691 668.563 186.368 666.261 182.984C642.14 195.998 618.413 209.735 595.118 224.18L595.117 224.18ZM274.883 835.469C275.839 858.772 274.954 881.544 275.711 904.39L286.529 897.427C304.959 886.679 324.185 875.806 342.29 864.624C334.453 856.231 332.202 853.552 327.973 842.402C335.606 818.194 343.886 814.22 368.557 819.167C368.593 806.608 368.552 794.048 368.432 781.488L367.906 781.168C336.937 798.77 304.928 816.441 274.883 835.469L274.883 835.469ZM380.365 813.163C386.627 809.509 396.718 804.019 402.422 800.097C402.434 788.842 402.888 773.452 401.908 762.541L400.353 761.593L378.833 774.544C378.797 779.93 378.229 809.957 379.314 813.457L380.365 813.163ZM383.476 263.228C382.562 276.456 382.249 286.815 382.219 300.038C387.678 303.307 398.013 309.893 403.353 312.387C401.638 305.708 402.484 236.214 402.519 225.4C388.997 215.594 370.061 207.511 359.427 199.271L354.346 197.379C352.997 201.005 353.605 239.061 353.646 245.56C363.618 251.398 373.562 257.288 383.476 263.228ZM594.684 337.72L595.186 358.548L613.15 367.536C620.819 371.474 630.45 376.114 637.665 380.489C637.593 367.514 638.375 325.906 636.654 315.026L635.735 314.216C622.471 321.681 607.462 329.752 594.684 337.72ZM938.617 675.459C895.516 702.035 851.56 725.953 808.656 752.458C808.618 810.229 807.147 874.747 808.741 932.058L823.21 924.072C867.992 899.298 913.101 872.44 957.864 847.086C957.777 792.402 958.274 736.391 957.372 681.794C950.058 680.735 945.135 679.075 938.617 675.459L938.617 675.459ZM608.466 871.109C616.49 866.228 624.569 861.441 632.707 856.752L641.081 851.792C640.932 843.084 641.024 832.364 640.248 823.871C628.992 816.965 619.187 813.4 608.445 807.526L608.466 871.109ZM353.892 870.365L354.569 904.374L372.859 894.312L401.219 877.996C392.303 872.336 382.796 866.017 373.541 861.086L353.892 870.365ZM675.829 905.953C686.962 912.275 698.13 918.534 709.332 924.735L709.168 893.907C701.67 889.317 681.819 877.632 675.841 872.582C675.723 883.707 675.718 894.831 675.829 905.953L675.829 905.953ZM818.368 348.152C815.06 343.297 809.569 340.389 803.698 340.384C797.823 340.379 792.328 343.278 789.013 348.129C783.958 355.528 785.201 365.534 791.914 371.47C798.626 377.407 808.705 377.414 815.427 371.492C822.149 365.566 823.408 355.562 818.368 348.153L818.368 348.152ZM951.843 638.935C945.725 640.33 940.85 644.946 939.124 650.981C937.395 657.013 939.09 663.51 943.544 667.932C947.998 672.354 954.504 674 960.525 672.226C969.437 669.599 974.655 660.367 972.311 651.372C969.965 642.379 960.904 636.872 951.843 638.935ZM909.151 421.69C904.196 417.943 898.075 414.288 897.088 407.642C895.876 399.474 898.831 391.978 907.811 390.616C913.136 389.815 918.56 391.18 922.872 394.403C936.112 404.275 926.248 415.427 915.589 421.301C915.774 435.488 916.939 470.5 915.25 482.861C926.682 475.337 947.486 463.352 959.938 457.408L958.811 293.082C951.9 291.457 950.373 291.298 944.072 288.037L942.438 287.208L827.741 353.211C828.158 371.252 826.221 375.576 809.444 383.094L809.593 525.945C814.951 528.744 820.688 531.591 825.847 534.692L904.977 488.488C907.887 486.243 908.647 486.466 908.891 481.888C909.944 462.218 908.434 441.257 909.151 421.689L909.151 421.69ZM185.697 647.568C180.831 649.579 178.405 655.062 180.185 660.019C181.968 664.976 187.331 667.657 192.362 666.106C195.833 665.038 198.438 662.146 199.136 658.581C199.837 655.017 198.52 651.355 195.71 649.053C192.902 646.751 189.054 646.18 185.697 647.568ZM377.926 850.25C382.631 853.242 398.596 864.009 402.919 864.298C402.287 847.013 404.108 830.619 402.709 812.803C400.09 812.209 382.325 823.847 377.651 826.192C377.954 834.572 378.134 841.88 377.926 850.25L377.926 850.25ZM220.708 376.934C226.887 375.555 231.838 370.942 233.647 364.871C235.454 358.803 233.837 352.229 229.421 347.693C225.003 343.155 218.477 341.365 212.364 343.013C203.194 345.483 197.68 354.832 199.948 364.057C202.216 373.282 211.438 379.001 220.708 376.934L220.708 376.934ZM137.598 400.222C141.066 399.166 143.664 396.277 144.346 392.714C145.03 389.152 143.685 385.507 140.853 383.241C138.022 380.977 134.169 380.467 130.845 381.919C126.103 383.989 123.799 389.401 125.589 394.256C127.381 399.112 132.647 401.729 137.598 400.222ZM237.319 343.598C269.799 322.199 310.04 300.045 343.95 280.683C344.03 271.52 344.253 261.968 343.974 252.847C310.54 234.104 277.755 213.778 244.266 195.065C235.878 190.376 225.687 184.829 217.852 179.478C200.003 188.677 179.802 201.135 162.224 211.334C135.9 226.444 109.685 241.749 83.5841 257.246C84.8886 263.444 86.3306 273.464 86.0867 279.021C86.0204 280.565 121.535 300.081 123.825 301.391C148.42 315.513 172.864 329.897 197.154 344.541C202.735 339.676 205.533 337.717 212.456 334.854C223.959 334.655 228.185 336.37 237.319 343.598L237.319 343.598ZM609.122 755.255C613.708 753.249 615.794 747.902 613.779 743.319C611.765 738.736 606.414 736.661 601.837 738.686C597.274 740.706 595.207 746.04 597.215 750.609C599.225 755.175 604.55 757.254 609.122 755.255ZM1006.35 770.641C1002.81 771.006 999.762 773.277 998.398 776.559C997.035 779.842 997.579 783.608 999.814 786.369C1002.05 789.133 1005.62 790.45 1009.11 789.801C1014.22 788.849 1017.67 784.037 1016.93 778.892C1016.18 773.748 1011.52 770.108 1006.35 770.641ZM353.34 25.5548C358.123 23.4351 360.337 17.8835 358.324 13.0543C356.314 8.22512 350.814 5.88749 345.944 7.7917C342.693 9.06117 340.387 11.9909 339.913 15.4488C339.437 18.9043 340.872 22.348 343.659 24.4464C346.448 26.5425 350.151 26.9688 353.34 25.5548L353.34 25.5548ZM446.51 218.515C451.665 218.505 455.846 214.337 455.87 209.181C455.896 204.025 451.755 199.816 446.6 199.757C441.399 199.7 437.144 203.887 437.118 209.091C437.093 214.294 441.309 218.522 446.51 218.515ZM349.296 824.252C325.032 838.896 345.285 861.28 356.648 858.192C362.413 855.288 365.19 853.957 370.503 850.03C370.652 842.605 370.861 836.81 370.106 829.404C362.396 826.292 357.633 823.506 349.296 824.252ZM678.348 852.728C698.578 817.218 635.081 815.037 651.338 851.854C657.572 855.65 662.011 857.5 669.334 858.713C670.819 857.467 676.44 853.969 678.348 852.728L678.348 852.728ZM403.544 354.879C398.911 356.743 396.65 361.998 398.482 366.645C400.312 371.292 405.55 373.592 410.209 371.794C414.916 369.978 417.241 364.675 415.392 359.978C413.543 355.284 408.225 352.994 403.544 354.879L403.544 354.879ZM750.801 863.158C746.44 864.845 744.281 869.754 745.981 874.11C747.683 878.465 752.596 880.611 756.945 878.897C761.276 877.189 763.409 872.3 761.716 867.964C760.023 863.627 755.141 861.477 750.801 863.158L750.801 863.158ZM276.438 1032.51C279.533 1031.28 281.716 1028.46 282.139 1025.16C282.566 1021.86 281.164 1018.58 278.484 1016.61C275.801 1014.63 272.259 1014.27 269.231 1015.65C264.709 1017.72 262.661 1023.02 264.616 1027.6C266.572 1032.17 271.816 1034.35 276.438 1032.51L276.438 1032.51ZM649.503 859.809C639.774 864.714 631.831 868.565 622.696 874.619C633.568 880.943 656.845 895.357 667.303 900.035C667.045 891.999 666.233 876.417 667.272 869.094C661.424 867.353 654.475 863.289 649.503 859.809L649.503 859.809ZM80.499 676.598C73.1805 680.179 70.5548 681.446 62.6515 683.793L62.6491 823.011C73.0976 827.026 78.3397 828.71 84.8531 838.418C85.9423 848.375 85.7268 850.21 84.659 860.132C123.808 881.867 160.794 904.783 199.337 927.144L211.857 934.583L211.725 753.316C200.107 746.177 81.929 676.657 80.499 676.598L80.499 676.598ZM909.379 397.357C906.355 398.583 904.257 401.376 903.916 404.62C903.578 407.865 905.053 411.032 907.757 412.858C910.458 414.684 913.946 414.871 916.827 413.346C920.985 411.145 922.69 406.072 920.703 401.807C918.714 397.544 913.735 395.585 909.379 397.357L909.379 397.357ZM602.341 905.541C597.973 907.41 595.946 912.467 597.814 916.836C599.68 921.208 604.735 923.238 609.106 921.372C613.479 919.505 615.51 914.446 613.642 910.072C611.774 905.698 606.714 903.67 602.341 905.541ZM271.253 786.007C268.023 786.822 265.497 789.335 264.664 792.558C263.83 795.784 264.822 799.206 267.254 801.485C269.686 803.761 273.164 804.528 276.327 803.486C280.982 801.951 283.584 797.006 282.218 792.3C280.851 787.592 276.005 784.811 271.253 786.007ZM64.4746 865.468C70.5311 864.409 75.5482 860.165 77.5938 854.367C79.6419 848.567 78.4012 842.115 74.3525 837.487C70.3014 832.859 64.0721 830.78 58.0535 832.042C48.9687 833.951 43.0874 842.792 44.8395 851.913C46.5915 861.032 55.3306 867.064 64.4746 865.468ZM58.8845 251.718C49.473 253.276 43.0945 262.155 44.6216 271.575C46.1488 280.994 55.0039 287.4 64.4249 285.903C73.8884 284.4 80.3309 275.492 78.7966 266.032C77.2624 256.571 68.3386 250.155 58.8845 251.718L58.8845 251.718ZM962.573 284.04C971.774 282.157 977.724 273.185 975.877 263.974C974.033 254.761 965.088 248.776 955.87 250.586C946.601 252.405 940.577 261.414 942.434 270.677C944.29 279.942 953.318 285.932 962.573 284.04ZM57.9516 638.727C51.8478 642.083 47.4155 644.752 45.5072 652.052C44.3067 656.5 45.081 661.248 47.6333 665.085C52.094 671.873 58.5862 673.467 66.1698 674.005C90.6279 663.306 81.3324 637.746 57.9516 638.727ZM678.381 250.654C678.389 260.883 678.353 270.909 678.781 281.141L741.617 317.614C754.123 324.888 771.729 334.693 782.957 343.288C797.643 328.916 808.833 328.639 823.574 343.141C822.771 343.105 928.867 281.517 935.447 277.666C934.457 268.405 934.571 263.666 936.749 254.669C896.714 230.887 842.511 202.912 805.156 177.456C763.35 200.062 720.282 227.086 678.381 250.654ZM509.945 13.0875C480.775 30.8909 451.369 48.3035 421.733 65.3206C403.424 75.7985 375.52 90.8403 358.693 103.057C373.704 111.415 505.349 190.97 510.717 192.041C562.148 162.966 608.843 130.869 662.982 103.504C631.359 83.9933 599.464 64.9322 567.3 46.3259C551.988 37.5083 523.05 22.0993 509.945 13.0875L509.945 13.0875Z"/>
    <path transform="scale(0.40918 0.409051)"
          d="M962.227 626.103C965.94 628.218 972.449 631.671 975.6 634.168L970.704 635.096C968.106 633.524 964.595 632.069 961.775 630.771C961.044 628.043 961.295 629.365 962.227 626.103Z"/>
    <path transform="scale(0.40918 0.409051)"
          d="M1003.87 393.967C968.187 376.948 1009.87 343.314 1022.9 374.314C1026.12 381.985 1016.14 390.73 1010.63 394.825C1010.46 411.441 1013.89 497.47 1007.03 504.826C997.913 514.596 978.614 522.499 966.745 528.898C967.751 550.122 954.975 559.527 937.675 546.117C922.278 555.839 907.037 565.384 890.946 573.946C913.813 588.592 937.031 602.689 960.577 616.22C973.488 623.728 1000.37 638.566 1010.95 647.097L1011.02 764.121L1005.98 763.28C1005.27 725.996 1004.95 688.708 1005.04 651.417C996.187 645.377 985.397 638.523 975.6 634.168C972.449 631.671 965.94 628.218 962.227 626.103C936.455 609.794 907.248 594.608 882.385 577.449L864.308 587.64C863.697 587.775 861.339 587.818 860.614 587.846L858.13 585.132C864.163 581.622 870.153 578.034 876.094 574.37C863.313 566.159 840.344 554.196 829.517 545.878C831.733 542.775 832.325 542.906 835.834 541.451C851.721 550.537 868.941 560.084 884.255 569.901C891.96 565.079 901.191 560.1 909.175 555.548C909.177 537.034 909.088 518.523 908.9 500.009C911.296 499.32 912.942 498.266 915.168 497.105C916.958 506.79 916.252 539.45 916.171 550.489C921.511 547.358 935.702 540.975 935.863 535.919C936.436 517.919 945.353 516.898 962.438 523.304C977.286 515.678 989.588 508.528 1003.94 499.954L1003.87 393.967ZM956.929 543.448C961.155 540.542 962.237 534.765 959.351 530.526C956.462 526.284 950.692 525.178 946.442 528.048C942.166 530.938 941.053 536.75 943.959 541.015C946.861 545.279 952.679 546.37 956.929 543.448L956.929 543.448ZM1011.53 385.536C1015.85 383.082 1017.46 377.654 1015.18 373.241C1012.9 368.827 1007.54 367.008 1003.04 369.118C999.968 370.56 997.934 373.563 997.735 376.948C997.534 380.332 999.203 383.556 1002.08 385.346C1004.96 387.139 1008.59 387.21 1011.53 385.536L1011.53 385.536Z"/>
    <path transform="scale(0.40918 0.409051)"
          d="M11.8696 379.889C14.9997 377.928 15.7692 376.559 19.2213 379.065C16.4321 389.671 17.7793 469.494 17.8669 486.438C55.5934 509.842 96.1706 532.51 133.064 556.124L137.977 557.151C143.214 563.425 162.167 572.717 170.471 579.052C167.741 580.826 167.672 581.241 164.705 582.067C156.475 579.469 124.803 560.001 115.699 554.605C80.8281 534.076 46.1441 513.229 11.6494 492.07C12.0898 465.963 12.265 439.851 12.1751 413.737C12.168 405.452 12.8143 386.751 11.8696 379.889Z"/>
    <path transform="scale(0.40918 0.409051)"
          d="M510.253 354.052C515.109 355.604 552.049 379.304 559.884 384.105C598.29 407.595 636.926 430.709 675.784 453.443C677.557 513.98 675.031 577.174 676.461 638.154C660.278 652.056 623.283 672.898 603.662 684.736C575.456 701.758 541.033 724.997 511.903 739.427C505.165 736.68 490.819 727.678 484.014 723.599L433.718 693.298C412.272 680.304 364.011 653.136 346.767 639.485C344.158 581.506 346.874 514.068 345.56 454.26C397.585 420.709 460.359 389.01 510.253 354.052L510.253 354.052ZM383.528 475.519C383.694 522.769 382.725 571.724 383.497 618.726C424.441 642.118 462.466 667.252 502.695 691.138C500.96 672.025 502.418 643.632 501.949 623.541L502.191 607.817L465.322 607.859C466.235 615.012 465.857 619.232 465.483 626.326C451.509 619.168 434.852 608.897 421.446 600.347C421.233 589.281 420.847 577.797 421.084 566.765L490.251 566.26C490.024 553.613 489.969 540.963 490.087 528.313C467.149 528.171 444.211 528.186 421.273 528.351L421.103 495.177C434.506 486.98 452.013 476.724 465.928 469.501L466.21 487.678C478.244 486.956 489.782 487.072 501.815 487.103C501.843 478.413 502.71 406.266 500.969 404.431C462.648 425.368 421.752 452.929 383.528 475.519L383.528 475.519ZM522.38 404.575C522.103 500.004 524.26 596.121 523.015 691.557C548.749 673.176 611.627 633.985 639.429 619.952L639.67 581.044C627.853 581.728 615.792 581.702 603.939 581.828C604.055 587.081 604.683 593.862 602.609 598.606C588.673 606.445 572.033 617.783 558.71 624.452C560.471 572.321 558.755 521.658 558.577 469.783C571.495 476.672 589.367 486.599 601.435 495.478C604.044 497.398 603.49 506.706 603.345 510.219C614.639 510.254 628.073 509.956 639.192 510.588C639.275 499.426 639.54 487.776 639.367 476.656C602.1 454.182 559.636 424.92 522.38 404.575L522.38 404.575Z"/>
    <path transform="scale(0.40918 0.409051)"
          d="M847.308 591.33L851.899 596.294L773.443 642.55C766.274 646.727 743.959 660.197 737.632 662.544L734.022 658.307C747.217 648.523 768.545 636.399 783.066 627.965C804.344 615.516 825.76 603.305 847.308 591.33L847.308 591.33Z"/>
    <path transform="scale(0.40918 0.409051)"
          d="M174.863 588.479C177.204 587.065 178.963 586.553 181.509 585.575C210.098 602.668 248.575 625.582 275.917 643.949L271.868 648.594C253.076 639.186 190.551 601.157 174.863 588.479Z"/>
    <path transform="scale(0.40918 0.409051)"
          d="M275.917 643.949C300.025 628.872 310.717 661.622 295.185 669.663C278.955 678.069 270.464 663.501 271.868 648.594L275.917 643.949ZM289.314 664.526C294.08 663.257 296.911 658.356 295.633 653.589C294.352 648.821 289.446 646 284.685 647.291C279.935 648.58 277.125 653.468 278.401 658.219C279.677 662.972 284.559 665.793 289.314 664.526L289.314 664.526Z"/>
    <path transform="scale(0.40918 0.409051)"
          d="M737.632 662.544C744.394 699.827 690.551 685.134 712.812 656.592C718.284 649.574 728.342 653.333 734.022 658.307L737.632 662.544ZM726.301 677.209C730.887 675.075 732.878 669.628 730.75 665.04C728.621 660.45 723.178 658.451 718.587 660.578C713.991 662.705 711.993 668.159 714.124 672.754C716.255 677.351 721.707 679.345 726.301 677.209Z"/>
    <path transform="scale(0.40918 0.409051)"
          d="M782.957 343.288C797.643 328.916 808.833 328.639 823.574 343.141C821.704 345.32 820.776 346.992 818.368 348.152C815.06 343.297 809.569 340.389 803.698 340.384C797.823 340.379 792.328 343.278 789.013 348.129L782.957 343.288Z"/>
    <path transform="scale(0.40918 0.409051)"
          d="M651.338 851.854C657.572 855.65 662.011 857.5 669.334 858.713C669.003 863.225 669.157 864.906 667.272 869.094C661.424 867.353 654.475 863.289 649.503 859.81C649.882 856.328 650.374 855.189 651.338 851.854L651.338 851.854Z"/>
    <path transform="scale(0.40918 0.409051)"
          d="M420.961 706.58C425.964 707.359 431.971 706.793 436.048 708.986C436.786 713.678 431.857 715.563 427.856 715.786C425.467 715.916 421.404 712.693 419.41 711.26L420.961 706.58Z"/>
    <path transform="scale(0.40918 0.409051)"
          d="M11.8365 697.142L17.5094 697.104C51.1801 721.255 -1.21177 743.122 0.334323 707.331C0.521369 703.02 7.99611 698.707 11.8365 697.142Z"/>
</svg>
