<?xml version="1.0" encoding="UTF-8" standalone="no"?>
<svg
   width="142.14891"
   height="156.33989"
   viewBox="-100 -100 419.00084 449.30725"
   version="1.1"
   id="svg28"
   xmlns="http://www.w3.org/2000/svg"
   xmlns:svg="http://www.w3.org/2000/svg">
  <defs
     id="defs32" />
  <path
     d="m 41.255879,-94.72498 c -20.606714,-20.53767 25.530786,-13.78803 2.895767,0.322618 -0.07774,7.669052 -0.235688,15.962029 0.01146,23.607806 21.38743,-12.729094 42.873471,-25.28966 64.457304,-37.681634 22.78928,13.15829 46.82329,26.524891 69.12728,40.43692 -0.10271,9.274372 0.12112,18.320126 0.063,27.462825 9.40705,-5.218264 19.817,-10.749042 28.812,-16.49989 l -0.0229,-6.815608 c -11.036,-6.302903 -3.53941,-17.681516 5.42327,-11.717552 5.06688,3.372421 0.79054,8.643534 -2.97146,11.260233 l 0.0863,9.161106 c -10.40422,6.352562 -21.14724,12.219581 -31.60547,18.529601 0.38586,6.567314 0.40427,18.676451 0.13953,25.382433 11.44927,-6.875329 22.96155,-13.645532 34.53602,-20.308155 4.37986,-2.532435 12.24839,-7.393597 16.64012,-9.389357 5.93311,2.479259 16.47073,8.907086 22.39688,12.401609 l 34.82654,20.664438 c 3.99523,-1.3748204 7.55878,-2.300912 11.66531,-0.2450215 2.0549,1.0124012 3.61183,2.8142709 4.31439,4.9941037 1.87446,5.8089332 -1.90473,10.3383549 -5.71706,14.1040788 0.50002,8.723012 0.27415,19.06014 0.27129,27.921003 l -0.034,42.402635 c -3.50994,1.9569 -20.96024,11.210043 -22.10349,13.511773 0.73243,3.96125 0.44396,17.321265 0.41082,21.836775 2.18461,-1.28073 7.99169,-3.89171 8.05757,-5.95987 0.23446,-7.36292 3.88312,-7.78056 10.87396,-5.16018 6.0755,-3.11942 11.10923,-6.044135 16.98179,-9.551339 l -0.0287,-43.354088 c -14.60077,-6.961639 2.45508,-20.71966 7.7867,-8.039079 1.31756,3.138239 -2.76606,6.714981 -5.02064,8.390045 -0.0696,6.7972 1.33393,41.98704 -1.47305,44.996019 -3.73049,3.996432 -11.62726,7.229162 -16.48381,9.847082 0.41163,8.68129 -4.81605,12.52842 -11.89528,7.04304 -6.29973,3.9768 -12.53604,7.88119 -19.12016,11.38348 9.35672,5.99096 18.85665,11.75736 28.49161,17.29222 5.28293,3.07116 16.2825,9.14066 20.61163,12.63027 l 0.0286,47.86879 c 7.04199,4.44475 7.15247,9.45235 -0.09,13.60953 -0.0532,9.75014 -0.22505,19.34321 0.0777,29.09621 -9.34813,6.81643 -28.37746,16.83286 -39.05869,22.86472 -14.19977,8.01863 -30.96552,18.88507 -45.16734,26.13264 -16.75551,-9.88268 -35.59866,-21.34592 -52.63732,-30.45631 0.45951,15.33042 0.35762,31.38731 0.57858,46.81589 -9.90011,6.90069 -24.73452,15.21261 -35.26559,21.58971 -8.15127,4.93725 -24.80981,14.76674 -33.35799,18.69772 -6.3562,-2.81427 -16.68349,-9.07684 -23.032327,-12.79102 -15.137205,-8.95413 -30.215897,-18.01052 -45.232394,-27.16508 0.46401,-5.58354 0.140349,-15.18847 0.123164,-21.24243 l -0.187814,-40.964 c -8.826013,5.46124 -18.569407,10.77809 -27.62456,16.27573 l -0.08143,37.17701 c 10.548251,4.40139 4.741987,13.9241 -2.268903,13.24098 -1.5291058,-0.15544 -2.9231821,-0.94082 -3.8462922,-2.17206 -3.8102841,-5.02315 -0.3400285,-8.41827 3.6097862,-11.28572 -0.2508275,-10.26349 -0.4709664,-25.30839 0.08143,-35.37882 -6.6487662,3.4344 -14.8536436,8.05953 -21.019168,12.23104 -3.463709,-1.61575 -6.681909,-3.43071 -9.97008,-5.37575 -15.67323,-9.2736 -31.608336,-18.41016 -46.880407,-28.33087 -0.689755,0.30801 -1.386343,0.59885 -2.091646,0.87005 -8.511885,3.2045 -13.571969,-0.62871 -16.063711,-8.66043 1.724448,-5.77007 2.469442,-6.59758 7.562464,-9.70146 l 0.0087,-58.79372 c -6.522984,-5.43997 -10.208305,-14.13394 -0.570643,-19.95269 3.011033,-1.81741 7.594463,-0.38083 10.693674,0.99031 4.464236,-2.62161 8.855842,-5.36552 13.170932,-8.22724 -5.219951,-2.62734 -14.100016,-7.99081 -19.094222,-11.05706 -4.876934,2.46576 -14.927336,8.83469 -18.999209,12.14513 0.460164,9.95262 0.1899,22.36978 0.108515,32.40462 l -2.321279,0.0155 -0.05327,-34.66094 c 4.28792,-3.47407 15.993046,-10.46229 20.955254,-13.25325 7.243754,4.40712 14.512673,8.77046 21.80692,13.09127 5.831225,-3.86921 13.849925,-8.79951 19.841957,-12.24862 -3.367551,-1.06272 -16.3271,-9.02612 -20.052275,-11.23336 -14.268475,-8.39741 -28.460474,-16.9249 -42.575015,-25.580007 0.180202,-10.679094 0.251891,-21.360234 0.215106,-32.042192 -0.0029,-3.388987 0.261547,-11.03865 -0.125005,-13.845558 -7.263122,-4.644365 -5.764382,-8.090211 0.434999,-12.390973 0.05135,-5.6809 -0.299356,-11.394115 -0.348785,-17.093423 -0.232496,-10.1403743 -0.09104,-20.1870759 -0.176315,-30.309043 23.493519,-15.074756 49.1444,-27.841647 72.898526,-42.65052 3.980094,-2.480486 8.569048,-5.217037 12.6886722,-7.461091 5.7391587,3.139876 11.6342149,6.967775 17.3308189,10.339173 10.8359049,6.370152 21.7573279,12.596317 32.7593599,18.675633 -0.470966,-3.993156 -0.318751,-10.018477 -0.290927,-14.139666 0.111706,-16.067523 1.464046,-30.312888 1.10274,-46.528733 z m -134.053587,83.572801 c 0.03584,8.5344396 0.01743,17.0684706 -0.05622,25.602911 0.165677,6.850377 -0.06297,13.650441 0.06007,20.455004 5.428223,3.020842 7.176894,9.305501 0.65878,11.590869 -1.141244,4.338395 -0.589997,36.990073 -0.554153,43.921033 15.43693,9.57343 32.040308,18.845802 47.13635,28.505132 0.171446,-5.35203 -0.339211,-11.76431 0.347803,-16.776 -2.287317,-2.244875 -28.081901,-16.551843 -33.503331,-20.017323 -0.257702,-20.718842 0.03294,-41.445457 -0.05328,-62.166344 -0.01162,-2.872356 0.06105,-5.738168 0.211219,-8.606842 -12.630323,-10.70813724 -5.190857,-23.391991 10.210228,-18.6183655 l 30.77987,-18.1622735 c 8.512989,-4.951562 18.104987,-10.257772 26.265264,-15.561118 4.4621077,2.222374 11.71359565,6.720708 16.2935474,9.365632 11.7970686,6.817244 23.5303046,13.746158 35.1964356,20.786744 0.08061,-6.586948 0.123164,-13.173896 0.126846,-19.760844 -16.774743,-9.516572 -33.4361434,-19.22867 -49.9825643,-29.135885 -13.9477187,7.840689 -27.8373337,16.37472 -41.6884857,24.478021 -13.045968,7.632891 -29.076781,15.754599 -41.448379,24.099649 z M 295.06901,169.62014 c 1.7652,20.934 0.39526,49.57943 0.75575,71.21005 -22.04907,12.25721 -44.43449,26.80961 -66.76344,38.34526 -8.47494,-3.5612 -28.09512,-15.68588 -36.52177,-20.68612 l 0.0229,12.66422 c 12.13914,7.09458 25.55043,14.39778 37.36591,21.69075 26.86594,-16.69256 54.0805,-31.53824 81.33844,-47.4626 -0.0818,-9.23555 -0.0941,-18.47233 -0.0327,-27.7087 -7.50027,-4.79367 -7.62916,-9.87041 0.39281,-14.01286 l 2.06227,0.34401 -0.0286,-47.86879 c -4.32913,-3.48961 -15.3287,-9.55911 -20.61163,-12.63027 -9.63455,-5.53486 -19.13489,-11.30126 -28.49161,-17.29222 6.58412,-3.50229 12.82043,-7.40668 19.12057,-11.38348 7.07882,5.48538 12.3065,1.63825 11.89487,-7.04304 4.85655,-2.61792 12.75332,-5.85065 16.48381,-9.847082 2.80698,-3.008979 1.40349,-38.198819 1.47305,-44.996019 2.25458,-1.675064 6.3382,-5.251806 5.02064,-8.390045 -5.33162,-12.680581 -22.38747,1.07744 -7.7867,8.039079 l 0.0287,43.354088 c -5.87256,3.507204 -10.90629,6.431919 -16.98179,9.551339 -6.99084,-2.62038 -10.6395,-2.20274 -10.87396,5.16018 -0.0659,2.06816 -5.87296,4.67914 -8.05757,5.95987 0.0331,-4.51551 0.32161,-17.875525 -0.41041,-21.836775 -0.91084,0.474908 -1.58435,0.905639 -2.56474,1.187884 -2.63676,0.187755 -24.3593,14.919321 -29.89715,16.951891 -1.43581,0.59476 -1.67804,0.54158 -2.58479,1.81087 -2.18747,1.80105 -4.38968,2.94026 -6.8419,4.34698 3.51977,2.41218 16.68596,9.82745 18.54977,11.70991 l 1.0164,1.11016 c 0.29625,-0.0115 1.26151,-0.029 1.51151,-0.0843 6.71465,5.2518 23.22793,13.80261 31.727,19.52809 3.2669,-1.54335 4.53331,-1.88327 8.15455,-1.88531 1.15389,0.53094 2.59052,1.1257 3.65357,1.76914 5.07138,5.51851 4.85656,12.26908 -0.81018,17.32045 -0.41859,0.38042 -0.85723,0.73793 -1.31346,1.07335 z M -43.542584,119.34286 c 2.142876,2.56639 9.898064,6.36729 13.295895,8.95863 1.416172,-1.29342 11.278637,-6.77593 14.475561,-9.07848 -3.286943,-1.97858 -25.951423,-16.12397 -27.740768,-15.86218 0.108842,3.15992 0.346985,12.90351 -0.03069,15.98203 z M 106.3556,-25.821566 C 87.754276,-37.014429 61.891236,-50.715183 44.8182,-62.612841 l -0.04869,31.191366 c 1.136702,0.673298 2.33028,1.455404 3.455934,2.165516 5.826314,3.256864 13.579457,7.357192 19.010912,10.950296 -0.116207,7.76706 -0.166945,15.5349385 -0.153033,23.3015898 -0.0041,3.2977692 0.136257,11.0423322 -0.363352,13.9052802 0.709927,2.934531 11.863765,8.422769 14.802086,10.158781 L 81.675089,2.7040141 c -0.11007,-3.7649054 -0.0581,-7.3367388 0.0033,-11.1045075 -0.06015,-2.4657596 -0.173492,-5.0930936 -0.140758,-7.5461726 -2.420709,-1.865682 -4.52594,-3.371399 -5.080379,-6.62949 -0.268012,-1.511443 0.108842,-3.066246 1.039727,-4.286854 2.03076,-2.678875 7.338643,-3.83649 9.454513,-1.466039 4.989541,5.590091 0.633411,9.534979 -3.3385,12.281756 -0.03273,5.303346 0.04665,11.1315051 -0.1248,16.39190091 0.141167,4.53310319 0.175129,9.06825159 0.101477,13.60299109 l 0.460327,16.557975 c 1.854404,1.123663 10.674279,6.147219 11.502459,7.355964 -0.50861,1.360504 -0.357214,0.811967 -1.858086,1.946674 -4.175682,0.942454 -5.127025,-2.973392 -8.455705,-2.907534 -1.277869,0.95227 -0.881783,0.996857 -1.253727,3.163191 0.05033,0.955134 0.09002,1.910268 0.121117,2.866629 0.07488,1.835003 0.200498,1.835003 -0.855186,3.423757 l -0.514748,-0.574307 0.658779,0.611122 0.17472,-0.14235 -0.625227,0.03477 C 80.978664,43.172657 81.577704,38.591285 81.70946,34.933142 79.779358,32.550829 70.436142,27.617674 67.249857,26.051009 l -0.04256,6.916234 c 3.442022,2.026848 8.474118,5.958237 5.00018,10.205414 -7.134463,8.722194 -19.499473,-3.389806 -7.456896,-9.493256 l -0.03887,-9.02162 c -2.579062,-1.506535 -6.286642,-3.5342 -8.650475,-5.186766 0.198452,14.454635 0.313023,28.910088 0.344121,43.366359 -1.543427,1.024264 -3.0889,2.102523 -4.715391,2.979119 L 52.086465,16.85227 C 49.362963,15.167389 44.915994,12.583823 42.532112,10.703415 27.888378,19.017377 13.49588,27.845107 -1.2337812,35.896048 c 0.27906077,8.175703 -0.4059065,9.12511 -7.5141815,13.169806 0.024142,21.470678 0.3052483,44.379171 -0.1792208,65.789716 C 6.1105906,105.4339 22.31862,96.453186 37.052373,87.003289 l -0.389539,5.706262 C 24.043313,100.48029 5.7202329,112.5023 -6.8780101,119.10357 c 13.8527889,9.11079 28.9102041,16.47862 42.7572641,25.56405 1.467729,0.96209 1.215674,2.62651 1.044227,4.16782 -3.663797,1.41245 -29.5493425,-15.75951 -34.5851208,-18.45597 -3.12859027,-1.67384 -10.2966055,-6.32884 -13.2177412,-8.45182 -3.16378,1.8436 -12.269672,6.92401 -14.850779,9.04208 11.698456,6.99191 27.4424748,16.3649 38.630274,23.87794 l -1.656769,1.90004 c -7.689311,-3.84835 -33.2737,-19.40415 -39.692916,-24.59051 -2.747234,1.98635 -16.62662,10.58747 -19.641458,11.9942 6.436811,3.63196 13.516034,7.58053 19.734752,11.57778 1.696051,-1.25252 4.996906,-3.29164 7.086588,-2.46249 14.9264772,5.93001 -4.210462,24.48743 -7.911086,5.34957 -5.517383,-3.26668 -16.666311,-9.39918 -21.459036,-12.87611 -4.034106,2.44122 -9.863489,6.17135 -13.977998,8.06403 0.528006,3.95757 0.411717,7.13262 0.368139,11.13273 17.694294,9.88677 35.24116,20.03491 52.634174,30.44158 15.1871247,-8.72506 40.952371,-24.89321 57.328164,-33.95164 0.458281,0.036 0.916154,0.0716 1.374435,0.10758 1.798346,1.11139 2.043445,1.34946 3.57296,2.84454 -19.638594,10.47089 -39.773933,23.26477 -59.2226672,34.5554 l -0.2782424,74.5115 c 5.5640297,-3.10592 13.6117819,-7.35146 18.8415116,-10.75968 -0.018413,-10.11787 0.190678,-21.26492 -0.1931331,-31.30181 13.5954151,-8.18265 27.5848701,-15.87976 41.0239781,-24.0342 -0.03355,-4.19604 0.02823,-8.87231 -0.211137,-13.02254 -6.978156,4.02424 -26.47231,14.77042 -31.959823,19.17917 -1.309785,6.2683 0.163672,11.32335 -9.2249627,8.99176 -1.3785274,-0.34238 -3.3499566,-2.4813 -3.5991473,-3.79027 -1.4034874,-7.35596 4.657287,-10.6161 10.684917,-7.12853 9.49625,-6.41924 24.217319,-15.46785 34.193127,-20.72539 -0.111297,-8.68456 -0.08429,-17.36871 0.08225,-26.05204 l 4.655241,1.97898 c -0.02251,6.92606 -0.126027,14.02186 -0.02905,20.93237 3.267712,-1.94054 9.295342,-4.96261 12.30568,-7.41732 0.841683,-0.6868 0.25942,-3.20696 1.959972,-3.80458 1.373617,0.9719 2.051628,2.38313 2.560239,3.97515 2.047128,0.31865 4.505072,0.0871 6.173299,0.98418 0.302384,1.91927 -1.714874,2.69033 -3.352003,2.78155 -0.977531,0.0532 -2.640029,-1.2652 -3.455525,-1.85137 -5.967072,2.72919 -10.834268,5.40479 -16.588975,8.5778 0.0049,4.56378 0.120298,9.64911 -0.07938,14.16748 3.704715,-2.3095 8.222063,-5.06078 12.273763,-6.74075 0.09861,6.14027 0.148941,12.28053 0.152215,18.4208 11.160384,-6.81357 24.57085,-14.08936 35.15184,-21.17903 l 5.10452,2.93944 c -13.354003,7.88814 -26.999337,15.71574 -40.197438,23.88408 -0.330208,0.20412 -0.52907,2.68133 -0.55403,3.13006 0.448461,2.69524 0.269241,6.84179 0.240189,9.717 l 0.0356,11.48248 c 13.7329,8.14256 27.397056,16.39885 40.993289,24.76722 12.92068,-7.77566 25.89209,-15.03386 38.80745,-22.69988 -0.5794,-4.80635 -0.75862,-23.81045 -0.0352,-28.21184 -12.17597,-7.02381 -24.23737,-14.24397 -36.17888,-21.66048 1.57535,-1.29792 2.98784,-2.04893 4.72971,-3.06502 9.30517,6.46669 21.44636,13.38293 31.28673,19.63282 -0.18536,-3.49248 -0.0892,-7.76134 -0.10598,-11.31476 -0.60231,-0.40906 -1.18867,-0.83979 -1.75702,-1.29424 -12.59292,-9.96407 9.30803,-19.45447 9.81664,-5.33321 0.09,2.51567 -3.38597,5.01619 -5.33612,6.40942 l 0.0127,12.76771 c 3.48662,2.12461 8.33827,4.54865 12.01802,6.52518 l -0.23078,-33.72216 c -0.0327,-6.26339 -0.31957,-14.79742 0.28807,-20.7847 l 4.38068,-3.29613 0.099,61.77324 c 12.98001,-6.07277 23.13299,8.47677 11.28641,16.96539 16.11515,10.02339 32.51794,19.57596 49.18712,28.64584 0.66574,-23.92744 -0.0998,-49.41499 0.0573,-73.55268 -8.19014,-5.56678 -22.05398,-13.12645 -30.99006,-18.37417 l 0.0589,56.80451 c 2.55206,1.37973 5.16181,3.33172 7.56656,4.85584 2.94691,0.82751 4.51243,-2.64288 8.04079,-1.02304 5.80709,2.66497 4.78782,10.84476 -1.31346,12.20281 -1.54139,0.3567 -3.16215,0.0409 -4.45638,-0.86964 -2.79716,-1.94176 -3.18752,-5.18308 -3.73091,-8.27101 -2.62161,-1.79696 -6.02231,-3.76736 -8.79573,-5.55696 -0.77703,-8.60888 -0.10557,-23.1486 -0.16408,-32.24876 -0.0413,-6.65935 -0.21605,-20.94259 0.48733,-27.09922 -3.42443,-2.31646 -23.44192,-13.87624 -24.22468,-15.94726 1.25536,-1.8575 4.83119,-1.45336 6.38812,-0.44873 17.33491,11.17814 36.13837,20.61985 53.26091,32.0201 17.87462,-11.35566 33.86578,-20.97572 52.66229,-31.03102 -0.0319,-4.21895 0.0262,-6.23516 0.58226,-10.3903 -3.99605,-2.45022 -8.02361,-4.84971 -12.07981,-7.1993 -6.23059,4.24227 -16.13765,9.62415 -22.8437,13.55963 1.91823,12.45274 -9.87106,10.13261 -12.14569,4.4513 -0.59495,-1.45132 -0.54176,-3.08752 0.14607,-4.49711 3.2493,-6.72153 9.06416,-2.05753 10.49138,-2.55371 6.42617,-2.23505 15.34179,-9.48752 21.90954,-12.07436 -2.64985,-1.62639 -16.49691,-10.53961 -18.74167,-10.28764 L 216.4778,154.275 c -2.93341,1.70901 -12.06467,7.21893 -14.65314,8.17897 l -1.47755,-1.73315 c 5.39913,-4.00215 14.12612,-8.96148 20.06782,-12.41142 8.70654,-5.09228 17.46953,-10.0872 26.28654,-14.98558 -2.83848,-1.30201 -15.49605,-9.65402 -18.15613,-11.66818 -1.55407,1.10525 -7.99947,5.18881 -9.50116,5.95987 -5.73138,2.94517 -33.12926,21.76315 -37.12858,21.17821 -0.64815,-1.13062 -0.57449,-2.12952 -0.23446,-3.42008 0.67146,-2.54961 37.54226,-23.01689 42.90947,-26.31834 -13.13099,-8.21252 -27.79968,-16.74491 -41.03748,-24.924297 -1.54547,-0.954316 -1.71569,-4.05165 -1.67231,-5.770482 l 0.37317,-0.317833 c 3.30249,1.251696 4.89706,3.276499 7.73473,4.821893 12.39774,6.753432 24.30938,14.502089 36.44157,21.795059 l 0.003,-7.64558 C 215.76583,99.999658 204.69424,93.788627 193.772,87.191453 c -5.11721,-3.090789 -9.96517,-6.114494 -14.06598,-10.506884 6.77684,1.849319 39.46419,21.734925 46.75332,26.541271 l -0.003,-54.704432 c -2.95387,-1.774873 -4.08157,-2.356134 -6.56939,-4.7589 -1.04627,-3.053566 -1.10438,-4.870979 -1.14979,-7.983857 -14.34422,-8.197791 -28.58655,-16.574338 -42.72331,-25.125958 -3.62042,2.220738 -6.78461,4.178456 -10.65423,5.936966 0.14935,10.982202 0.0156,22.296961 0.0168,33.302478 4.57627,2.496848 9.27529,5.345888 13.79346,7.989994 0.0843,2.887082 0.70829,11.637092 -1.18171,13.675393 -1.76439,-1.681609 -1.50865,-9.240462 -1.5422,-11.855116 -3.66216,-2.058754 -7.33415,-4.097873 -11.01758,-6.118176 0.0544,3.764087 -0.0327,7.706112 -0.0569,11.484516 l -4.76572,-2.762322 -0.0205,-11.876386 c -6.38034,-3.878213 -13.34909,-6.834834 -19.8215,-10.866031 -0.17635,-3.049885 -0.26637,-5.093094 -0.15303,-8.165067 -3.95472,2.748413 -11.26841,6.735843 -15.63763,9.321863 l -4.0206,-3.298996 c 6.10373,-3.80622 13.48575,-7.760107 19.83336,-11.333985 l -0.0262,-44.816855 32.18978,-18.97424 c -0.32652,-7.7327 0.003,-17.279541 0.0716,-25.145183 -8.85097,5.169587 -17.49981,10.843942 -26.32623,16.074477 -11.82735,7.008271 -23.98859,13.818152 -35.52337,21.298877 0.17635,18.2988962 -0.26638,36.697601 0.18495,54.979727 0.0274,1.101574 -0.88833,1.764237 -1.63631,2.321364 -1.53934,0.224978 -1.59171,0.346057 -3.06313,-0.02618 -0.624,-2.890764 -0.37521,-15.445357 -0.36744,-19.150132 z M 93.002419,338.12747 106.31591,346.2185 c 0.1248,-23.35681 0.12684,-46.71363 0.006,-70.06962 -12.494724,-8.59539 -27.256301,-15.83804 -39.598807,-24.12705 -5.307883,3.90439 -15.760386,9.94853 -21.852258,12.76116 0.496745,4.75195 0.209091,12.24576 0.169401,17.18178 l -0.205409,28.21225 c 16.328328,8.24237 32.347316,19.23766 48.168261,27.95045 z M 158.4704,318.30486 c 4.69207,-2.74064 9.9574,-5.65718 14.40314,-8.70461 -0.1424,-9.3554 -0.19968,-18.71285 -0.17145,-28.07071 -6.64795,-4.21118 -13.19033,-8.00799 -20.00563,-11.95125 -13.2116,6.83238 -13.94199,-10.15755 -5.15035,-12.05759 6.2044,0.98049 5.4691,9.09402 9.20001,11.42234 4.93675,3.08179 10.86986,6.45196 16.08773,9.10875 -0.13462,-5.0796 -0.15304,-10.16206 -0.0552,-15.24124 -4.22479,-2.44327 -16.91019,-10.55352 -20.73602,-11.89684 -3.43343,2.81918 -7.70609,5.33893 -11.5937,7.54208 -9.9353,5.62854 -19.61855,11.41539 -29.32021,17.42966 0.18413,23.34413 0.18904,46.6899 0.0127,70.03444 z m -174.784101,-204.44328 2.581108,1.19852 c 0.554029,-1.83991 0.213182,-21.567626 0.185767,-24.907936 -0.126846,-13.755158 -0.130528,-27.511134 -0.01146,-41.266292 -6.965471,-3.283452 -7.038305,-4.950744 -7.375469,-12.250668 -6.729375,-4.289718 -15.267324,-8.72424 -22.378464,-12.73703 0.39936,6.141491 0.187814,14.669796 -0.02332,20.919686 6.675363,4.228769 6.984293,8.330732 0.371126,13.133809 -0.391176,13.360015 -0.131756,26.45251 -0.265557,39.798617 8.481892,5.038694 18.803866,10.827584 26.916269,16.111294 z m -58.097095,-101.55223 0.04166,67.274163 c 3.022694,1.75442 27.455732,16.152606 28.601027,16.147698 0.01841,-12.092366 -0.18986,-25.330075 0.238552,-37.327949 -7.718772,-3.736681 -8.609966,-10.907754 -0.201726,-13.891781 l 0.04747,-21.939451 C -48.274342,20.969777 -66.205018,9.4913973 -68.359637,9.7646434 -70.30402,10.615879 -72.428605,11.608236 -74.410796,12.30935 Z M 240.43406,159.15498 c -1.34456,0.20739 -2.47431,1.12407 -2.95264,2.39867 -0.47874,1.2742 -0.23364,2.70792 0.64201,3.74936 0.87605,1.04267 2.24598,1.53067 3.58359,1.27788 2.02013,-0.38083 3.36183,-2.31155 3.01402,-4.3384 -0.34657,-2.02562 -2.25417,-3.40044 -4.28698,-3.08751 z m -96.9241,-176.014239 c 0.0438,13.3260634 0.22587,26.915147 0.0933,40.219121 0.60927,0.407824 0.33308,0.381645 0.74594,0.365283 4.98627,-3.039249 11.27782,-6.643397 16.49077,-9.315318 -0.0319,-5.2092649 -0.11211,-10.4173023 -0.24101,-15.6257487 4.12495,-2.7574127 8.47003,-5.1724498 12.77379,-7.6447541 -0.0205,-3.2899972 0.18986,-23.4656192 -0.75208,-24.8498482 -9.86983,5.32339 -19.57844,10.942523 -29.11029,16.851265 z M 12.476613,233.18912 c 0.391176,9.53211 0.02905,18.84702 0.338801,28.1922 l 4.426509,-2.84822 c 7.541188,-4.39648 15.408082,-8.84409 22.816286,-13.4181 -3.206743,-3.43317 -4.127808,-4.52901 -5.85823,-9.08993 3.123271,-9.90231 6.511282,-11.52788 16.606161,-9.5043 0.01473,-5.13727 -0.002,-10.27495 -0.05115,-15.41263 l -0.215229,-0.1309 C 37.867866,218.17736 24.770423,225.4057 12.47661,233.18912 Z m 43.161125,-9.12429 c 2.562285,-1.49468 6.69132,-3.74037 9.025283,-5.34466 0.0049,-4.60387 0.190678,-10.89917 -0.210318,-15.36232 l -0.636275,-0.38778 -8.805554,5.29762 c -0.01473,2.20314 -0.247145,14.48572 0.196816,15.9174 z M 56.910697,-0.8866356 c -0.373991,5.4109266 -0.502064,9.6482859 -0.514339,15.0571676 2.233713,1.337187 6.462588,4.031197 8.64761,5.051371 C 64.342224,16.489851 64.68839,-11.936739 64.702712,-16.360217 59.16978,-20.371371 51.421547,-23.67773 47.070327,-27.04831 l -2.079044,-0.773925 c -0.551983,1.483219 -0.303202,17.050064 -0.286426,19.7084863 4.080343,2.3880398 8.149229,4.7973502 12.20584,7.2271131 z m 86.422093,30.4710266 0.2054,8.519715 7.35051,3.67655 c 3.13801,1.610843 7.07882,3.50884 10.03105,5.298438 -0.0295,-5.307437 0.29052,-22.327231 -0.41368,-26.777706 l -0.37604,-0.331331 c -5.42736,3.053566 -11.56874,6.355016 -16.79724,9.614334 z m 140.7305,138.152479 c -17.63607,10.87094 -35.62198,20.65462 -53.17744,31.49652 -0.0156,23.63128 -0.61745,50.02243 0.0348,73.46555 l 5.92042,-3.26668 c 18.3239,-10.13383 36.7816,-21.12012 55.09773,-31.4912 -0.0356,-22.36854 0.16776,-45.2799 -0.20132,-67.61285 -2.99274,-0.43319 -5.00713,-1.11221 -7.67417,-2.59134 z M 148.97211,247.7677 c 3.28326,-1.99658 6.58902,-3.95471 9.91893,-5.87275 l 3.42647,-2.02889 c -0.061,-3.56202 -0.0233,-7.94705 -0.34085,-11.42112 -4.60573,-2.8249 -8.61774,-4.28317 -13.01315,-6.68593 z m -104.166594,-0.30434 0.277015,13.91142 7.483902,-4.11587 11.604345,-6.67408 c -3.648249,-2.31523 -7.538324,-4.90002 -11.325284,-6.91705 z M 176.5357,262.02067 c 4.5554,2.58602 9.12512,5.14627 13.70875,7.68279 l -0.0671,-12.61022 c -3.06803,-1.87754 -11.19066,-6.6573 -13.63674,-8.72301 -0.0483,4.55069 -0.0503,9.10097 -0.005,13.65044 z M 234.85981,33.851612 c -1.35357,-1.985943 -3.60038,-3.175463 -6.00268,-3.177509 -2.40393,-0.002 -4.65237,1.183794 -6.0088,3.1681 -2.06841,3.026569 -1.5598,7.119533 1.18703,9.54766 2.74641,2.428536 6.87054,2.431399 9.62105,0.009 2.7505,-2.424036 3.26566,-6.516183 1.2034,-9.546841 z m 54.6153,118.945078 c -2.50337,0.57062 -4.49812,2.4588 -5.20436,4.92743 -0.70748,2.46739 -0.0139,5.125 1.80857,6.93382 1.82249,1.80882 4.48461,2.48212 6.94829,1.75647 3.64661,-1.07458 5.78171,-4.85094 4.82259,-8.53035 -0.95993,-3.6786 -4.66751,-5.93124 -8.37509,-5.08737 z M 272.00639,63.932404 c -2.02748,-1.532714 -4.53207,-3.027796 -4.93594,-5.746348 -0.49592,-3.341129 0.71321,-6.407375 4.38764,-6.964503 2.17889,-0.32765 4.39828,0.230705 6.16266,1.549076 5.41755,4.038152 1.38139,8.599889 -2.98006,11.002654 0.0757,5.803207 0.5524,20.1249 -0.13871,25.18118 4.67775,-3.0777 13.19033,-7.980176 18.28544,-10.411575 l -0.46115,-67.217715 c -2.82784,-0.664708 -3.45266,-0.729747 -6.0309,-2.0636623 l -0.6686,-0.3391033 -46.93172,26.9985936 c 0.17063,7.379689 -0.62195,9.148425 -7.48677,12.223671 l 0.061,58.433348 c 2.19239,1.14493 4.53985,2.3095 6.65081,3.57797 l 32.37842,-18.899797 c 1.19071,-0.91832 1.50169,-0.827101 1.60153,-2.699737 0.43086,-8.046033 -0.187,-16.620151 0.10638,-24.624461 z M -24.016514,156.32803 c -1.99107,0.8226 -2.983741,3.06542 -2.255401,5.09309 0.729568,2.02767 2.924001,3.12433 4.982585,2.48989 1.420264,-0.43686 2.486178,-1.61984 2.771786,-3.07811 0.286835,-1.45785 -0.252055,-2.9558 -1.401851,-3.89743 -1.148978,-0.94164 -2.723502,-1.17521 -4.097119,-0.60744 z m 78.656262,82.90727 c 1.925192,1.22388 8.45775,5.62813 10.226636,5.74635 -0.258602,-7.07045 0.486515,-13.77643 -0.08593,-21.06408 -1.071643,-0.24298 -8.340725,4.51756 -10.253233,5.47678 0.123982,3.42785 0.197634,6.41719 0.112525,9.84095 z M -9.6907134,45.624917 c 2.5283232,-0.564081 4.5541734,-2.451033 5.29438,-4.934382 0.7393883,-2.482121 0.077744,-5.171223 -1.7291947,-7.026678 -1.8077572,-1.856273 -4.4780659,-2.588475 -6.9793829,-1.914359 -3.752181,1.010356 -6.008399,4.834574 -5.080379,8.60807 0.92802,3.773495 4.701478,6.112858 8.4945766,5.267349 z m -34.0069496,9.52598 c 1.419036,-0.431958 2.482086,-1.613706 2.761146,-3.071155 0.27988,-1.457039 -0.270468,-2.94803 -1.429265,-3.87494 -1.158389,-0.926091 -2.734959,-1.134707 -4.095074,-0.540765 -1.940331,0.846735 -2.883082,3.060519 -2.15065,5.046462 0.733251,1.986351 2.887993,3.056838 4.913843,2.440398 z M -2.8938244,31.988793 C 10.396342,23.235511 26.862154,14.173395 40.737448,6.2533496 c 0.03274,-3.7481343 0.123982,-7.6553895 0.0098,-11.3863436 -13.680524,-7.666843 -27.09549,-15.981214 -40.79851899,-23.635785 -3.43220181,-1.91804 -7.60215521,-4.187046 -10.80808101,-6.375878 -7.303453,3.76286 -15.569299,8.858818 -22.761865,13.030729 -10.771254,6.18076 -21.497908,12.441286 -32.177874,18.7803493 0.533775,2.53529812 1.123813,6.6339891 1.024014,8.9070855 -0.02713,0.6315748 14.504735,8.6146142 15.441758,9.1504712 10.063782,5.776618 20.065778,11.660408 30.00476,17.65055 2.283633,-1.990033 3.428519,-2.791364 6.261272,-3.962477 4.7067978,-0.0814 6.4359924,0.620122 10.1734426,3.576742 z M 149.24053,200.3775 c 1.8765,-0.82056 2.73005,-3.00775 1.90555,-4.88243 -0.82409,-1.87468 -3.01361,-2.72346 -4.88643,-1.89514 -1.86709,0.82629 -2.71286,3.00817 -1.89123,4.87712 0.82245,1.86773 3.00134,2.71814 4.87211,1.90045 z m 162.53775,6.29366 c -1.4485,0.1493 -2.69568,1.07826 -3.2538,2.42076 -0.55771,1.34292 -0.33512,2.8834 0.5794,4.01279 0.91493,1.13062 2.3757,1.66934 3.80374,1.40387 2.09091,-0.38942 3.50258,-2.35777 3.19978,-4.46234 -0.30688,-2.10416 -2.21366,-3.5931 -4.32912,-3.37508 z M 44.579648,-98.107096 c 1.957108,-0.867065 2.863033,-3.137954 2.039353,-5.113344 -0.822451,-1.97538 -3.072941,-2.93159 -5.065648,-2.15267 -1.330244,0.51928 -2.273813,1.71769 -2.467765,3.13214 -0.194769,1.41348 0.392404,2.82213 1.532789,3.680482 1.141203,0.857412 2.656396,1.03179 3.961271,0.453392 z m 38.123301,78.930563 c 2.109323,-0.0041 3.820104,-1.709015 3.829925,-3.818082 0.01064,-2.109067 -1.683776,-3.830763 -3.793099,-3.854897 -2.128145,-0.02332 -3.869206,1.689381 -3.879845,3.818082 -0.01023,2.128293 1.714874,3.85776 3.843019,3.854897 z M 42.924924,228.60079 c -9.928343,5.99015 -1.641221,15.14634 3.008292,13.88319 2.358922,-1.18788 3.495215,-1.73233 5.669189,-3.33867 0.06097,-3.0372 0.146486,-5.40765 -0.162445,-8.43709 -3.154778,-1.27296 -5.103702,-2.41258 -8.515036,-2.10743 z m 134.641496,11.64814 c 8.27771,-14.5254 -17.70399,-15.41754 -11.05195,-0.35751 2.55083,1.55276 4.36718,2.3095 7.3636,2.80568 0.60764,-0.50968 2.90764,-1.94054 3.68835,-2.44817 z M 65.122121,36.603298 c -1.895731,0.762471 -2.820887,2.912034 -2.071269,4.812894 0.748799,1.90086 2.892084,2.841677 4.798454,2.106203 1.92601,-0.742836 2.877354,-2.912034 2.12078,-4.833346 -0.756574,-1.920086 -2.932593,-2.856813 -4.847965,-2.085751 z M 207.21274,244.51533 c -1.78443,0.69007 -2.66785,2.6981 -1.97225,4.47993 0.69643,1.78141 2.70673,2.65924 4.48625,1.95812 1.77216,-0.69865 2.64494,-2.6985 1.9522,-4.47215 -0.69274,-1.77405 -2.69036,-2.65351 -4.4662,-1.9659 z M 13.112888,313.78894 c 1.266412,-0.50314 2.159652,-1.65666 2.332735,-3.00653 0.17472,-1.34987 -0.39895,-2.69155 -1.495553,-3.49739 -1.09783,-0.80992 -2.547145,-0.95717 -3.786142,-0.39268 -1.8503122,0.84673 -2.6883129,3.0147 -1.888366,4.88816 0.8003561,1.86936 2.946096,2.76109 4.837326,2.00844 z M 165.76362,243.14542 c -3.98091,2.00639 -7.23102,3.58165 -10.96888,6.05804 4.4486,2.58684 13.97308,8.4829 18.25229,10.39644 -0.10557,-3.28713 -0.43782,-9.66096 -0.0127,-12.65644 -2.39288,-0.71216 -5.23627,-2.37454 -7.27072,-3.79804 z M -67.061432,168.20278 c -2.994584,1.46481 -4.068968,1.98308 -7.30284,2.94312 l -9.82e-4,56.94726 c 4.275317,1.64234 6.42028,2.33118 9.085433,6.30225 0.445678,4.07292 0.3575,4.82353 -0.07942,8.88213 16.018988,8.89073 31.152919,18.26454 46.923944,27.41133 l 5.122933,3.04293 -0.05401,-74.14745 c -4.753854,-2.92021 -53.109928,-31.35744 -53.695055,-31.38157 z M 272.09969,53.978966 c -1.23736,0.501497 -2.09582,1.643976 -2.23535,2.970937 -0.13831,1.327371 0.46523,2.622835 1.57166,3.369763 1.10519,0.746927 2.53241,0.823419 3.71126,0.199616 1.70137,-0.900321 2.39902,-2.975437 1.58598,-4.720039 -0.81386,-1.743784 -2.85117,-2.545115 -4.63355,-1.820277 z M 146.46588,261.85214 c -1.7873,0.76452 -2.61671,2.83309 -1.85236,4.62023 0.76353,1.78837 2.83193,2.61874 4.62046,1.85546 1.78934,-0.7637 2.62039,-2.83309 1.85604,-4.62228 -0.76435,-1.78919 -2.8348,-2.61875 -4.62414,-1.85341 z M 10.99129,212.95664 c -1.3216517,0.33337 -2.3552404,1.36132 -2.6960873,2.67969 -0.3412562,1.3196 0.06465,2.71937 1.0597762,3.6516 0.9951261,0.931 2.4182541,1.24474 3.7124901,0.81851 1.904733,-0.62789 2.969419,-2.65065 2.410479,-4.57564 -0.559349,-1.92582 -2.542235,-3.06339 -4.486658,-2.57416 z m -84.609586,32.5036 c 2.478199,-0.43319 4.531096,-2.1692 5.368114,-4.54088 0.838042,-2.37249 0.330372,-5.01169 -1.326275,-6.90478 -1.657629,-1.89309 -4.206534,-2.7435 -6.669225,-2.22728 -3.717318,0.78088 -6.123829,4.3973 -5.406904,8.12825 0.716883,3.73014 4.292748,6.19753 8.03429,5.54469 z M -75.905653,-5.5948126 c -3.850998,0.6373015 -6.460952,4.2692653 -5.836094,8.1225257 0.6249,3.8528514 4.24823,6.4732321 8.103115,5.8608827 3.872275,-0.6148036 6.508417,-4.2586299 5.880612,-8.12825239 -0.627764,-3.87003151 -4.279205,-6.49450271 -8.147633,-5.85515601 z M 293.86561,7.6265338 c 3.76486,-0.770243 6.19948,-4.4402486 5.44373,-8.20801735 -0.75453,-3.76858685 -4.41465,-6.21675705 -8.18647,-5.47637475 -3.79269,0.7440637 -6.25759,4.4292042 -5.49774,8.2182436 0.75944,3.7898575 4.45352,6.240073 8.24048,5.4661485 z M -76.287377,152.71161 c -2.497553,1.37277 -4.311162,2.46453 -5.092,5.4506 -0.49122,1.81946 -0.174392,3.76163 0.869958,5.33116 1.825229,2.77664 4.481707,3.42867 7.584765,3.64874 10.007765,-4.37644 6.204233,-14.83178 -3.362723,-14.4305 z M 177.57992,-6.0300429 c 0.003,4.1841827 -0.0114,8.285328 0.16368,12.4707379 l 25.71123,14.919317 c 5.11721,2.975437 12.32123,6.986182 16.9155,10.501975 6.00922,-5.878881 10.58794,-5.992188 16.61967,-0.06013 -0.32858,-0.01473 43.08379,-25.2073589 45.77619,-26.7826143 -0.40509,-3.7882213 -0.35844,-5.72671396 0.53275,-9.4069458 -16.38152,-9.7280509 -38.5603,-21.1712529 -53.84522,-31.5840549 -17.10618,9.247007 -34.72874,20.301201 -51.8738,29.9417151 z M 108.65928,-103.20686 c -11.935778,7.282501 -23.968125,14.405143 -36.094584,21.366005 -7.491677,4.285995 -18.909435,10.438858 -25.794707,15.436112 6.142201,3.418848 60.008701,35.9609 62.205181,36.398994 21.04454,-11.893158 40.1512,-25.022468 62.30379,-36.216149 -12.9395,-7.980871 -25.99029,-15.777833 -39.15116,-23.388759 -6.26536,-3.606848 -18.10621,-9.909914 -23.46852,-13.596203 z"
     id="path2"
     style="stroke-width:0.409115" />
  <path
     d="m 293.72403,147.54775 c 1.51929,0.86514 4.18264,2.27759 5.47197,3.29899 l -2.00335,0.3796 c -1.06305,-0.64303 -2.49968,-1.2382 -3.65357,-1.76914 -0.29911,-1.1159 -0.1964,-0.57513 0.18495,-1.90945 z"
     id="path4"
     style="stroke-width:0.409115" />
  <path
     d="m 310.76351,52.592283 c -14.60077,-6.961639 2.45508,-20.71966 7.7867,-8.039079 1.31756,3.13783 -2.76606,6.714981 -5.02064,8.390045 -0.0696,6.796791 1.33393,41.98704 -1.47305,44.996019 -3.73049,3.996432 -11.62726,7.229162 -16.48381,9.846672 0.41163,8.6817 -4.81605,12.52883 -11.89487,7.04345 -6.30014,3.9768 -12.53645,7.88119 -19.12057,11.38348 9.35672,5.99096 18.85706,11.75736 28.49161,17.29222 5.28293,3.07116 16.2825,9.14066 20.61163,12.63027 l 0.0286,47.86879 -2.06227,-0.34401 c -0.29051,-15.25106 -0.42145,-30.50376 -0.38463,-45.75768 -3.62247,-2.47066 -8.03752,-5.2743 -12.04625,-7.05572 -1.28933,-1.0214 -3.95268,-2.43385 -5.47197,-3.29899 -10.54539,-6.67122 -22.49631,-12.88307 -32.66975,-19.90197 l -7.39675,4.16864 c -0.25,0.0552 -1.21485,0.0728 -1.51151,0.0843 l -1.0164,-1.11016 c 2.46858,-1.43577 4.91957,-2.90345 7.35051,-4.40221 -5.22973,-3.35872 -14.62818,-8.25219 -19.05838,-11.65468 0.90675,-1.26929 1.14898,-1.2157 2.58479,-1.81087 6.50065,3.71664 13.54673,7.62185 19.81291,11.6375 3.15273,-1.97244 6.92987,-4.00911 10.19676,-5.87111 8.2e-4,-7.57317 -0.0356,-15.14511 -0.11252,-22.718281 0.98039,-0.281836 1.6539,-0.712976 2.56474,-1.187884 0.73243,3.961659 0.44355,17.321265 0.41041,21.836775 2.18502,-1.28073 7.99169,-3.89171 8.05757,-5.95987 0.23446,-7.36292 3.88312,-7.78056 10.87396,-5.16018 6.0755,-3.11942 11.10923,-6.044135 16.98179,-9.551339 z M 291.5562,113.73764 c 1.72919,-1.18871 2.17192,-3.55179 0.99103,-5.28576 -1.18212,-1.7352 -3.54309,-2.18761 -5.28211,-1.01363 -1.74965,1.18216 -2.20507,3.55956 -1.01599,5.30416 1.18744,1.7442 3.56805,2.19047 5.30707,0.99523 z m 22.34163,-64.594066 c 1.76766,-1.003811 2.42644,-3.22414 1.49351,-5.029282 -0.93293,-1.805551 -3.12614,-2.549615 -4.96745,-1.686517 -1.257,0.589851 -2.08927,1.818231 -2.1707,3.202869 -0.0822,1.384229 0.60068,2.703009 1.77789,3.43521 1.17844,0.733429 2.66376,0.762471 3.86675,0.07772 z"
     id="path6"
     style="stroke-width:0.409115" />
  <path
     d="m -95.14321,46.833663 c 1.280774,-0.802149 1.595638,-1.36214 3.008169,-0.337058 -1.141285,4.338395 -0.590038,36.990073 -0.554194,43.921033 15.43693,9.57343 32.040308,18.845802 47.13635,28.505132 l 2.010301,0.42009 c 2.142876,2.56639 9.898064,6.36729 13.295895,8.95863 -1.117061,0.72565 -1.145295,0.89541 -2.359332,1.23329 -3.367551,-1.06272 -16.3271,-9.02612 -20.052275,-11.23336 -14.268475,-8.39741 -28.460474,-16.9249 -42.575015,-25.580007 0.180202,-10.679094 0.251891,-21.360234 0.215106,-32.042192 -0.0029,-3.388987 0.261547,-11.03865 -0.125005,-13.845558 z"
     id="path8"
     style="stroke-width:0.409115" />
  <path
     d="m 108.78531,36.265012 c 1.98698,0.634848 17.10209,10.329356 20.30801,12.29321 15.71497,9.608608 31.52405,19.063413 47.42396,28.362778 0.72548,24.76272 -0.30811,50.61229 0.27702,75.55622 -6.62176,5.68663 -21.75937,14.21207 -29.7879,19.05441 -11.54133,6.96287 -25.62653,16.46881 -37.54594,22.37141 -2.75706,-1.12366 -8.62715,-4.80594 -11.411624,-6.47446 L 77.468718,175.03393 C 68.693444,169.71872 48.946008,158.60562 41.890108,153.02167 40.822558,129.3053 41.93389,101.71972 41.396228,77.255195 62.683817,63.531125 88.369683,50.564617 108.78531,36.265012 Z M 56.931974,85.95121 c 0.06792,19.32766 -0.328571,39.35275 -0.01268,58.57897 16.753466,9.56852 32.312535,19.84961 48.773436,29.6202 -0.70993,-7.81819 -0.11335,-19.43238 -0.30525,-27.65062 l 0.099,-6.43192 -15.086053,0.0172 c 0.373581,2.92594 0.218911,4.65214 0.06588,7.55394 -5.717881,-2.92798 -12.533593,-7.12935 -18.01906,-10.62673 -0.08715,-4.52656 -0.245098,-9.2241 -0.148123,-13.73675 l 28.301756,-0.20657 c -0.0929,-5.17327 -0.11539,-10.34777 -0.0671,-15.52226 -9.385779,-0.0581 -18.77155,-0.052 -28.157321,0.0155 l -0.06956,-13.569855 c 5.484239,-3.352991 12.647753,-7.548218 18.341493,-10.502794 l 0.115389,7.43532 c 4.924072,-0.295334 9.645199,-0.247885 14.568859,-0.235204 0.0115,-3.554653 0.36621,-33.066456 -0.34617,-33.817064 -15.680174,8.564321 -32.414,19.838175 -48.054496,29.078637 z M 113.74744,56.931496 c -0.11335,39.035328 0.76925,78.352084 0.25982,117.390274 10.52984,-7.51877 36.25826,-23.54988 47.63429,-29.2901 l 0.0986,-15.91535 c -4.83528,0.27979 -9.7704,0.26915 -14.62041,0.32069 0.0475,2.14875 0.30443,4.92252 -0.54421,6.86306 -5.70233,3.20655 -12.51109,7.84437 -17.9626,10.57233 0.72057,-21.32423 0.0184,-42.04799 -0.0544,-63.267506 5.28579,2.817952 12.59866,6.878601 17.53664,10.510565 1.06755,0.785378 0.84087,4.592825 0.78153,6.029821 4.62128,0.0143 10.11821,-0.10758 14.66788,0.15094 0.034,-4.565827 0.14239,-9.331272 0.0716,-13.879919 -15.24891,-9.193012 -32.62433,-21.162662 -47.86874,-29.484805 z"
     id="path10"
     style="stroke-width:0.409115" />
  <path
     d="m 246.70147,133.32382 1.87855,2.03052 -32.10263,18.92107 c -2.93341,1.7086 -12.06426,7.21852 -14.65314,8.17856 l -1.47714,-1.73315 c 5.39913,-4.00215 14.12612,-8.96148 20.06782,-12.41142 8.70654,-5.09228 17.46953,-10.0872 26.28654,-14.98558 z"
     id="path12"
     style="stroke-width:0.409115" />
  <path
     d="m -28.449571,132.15761 c 0.957891,-0.5784 1.677638,-0.78783 2.719411,-1.18788 11.698047,6.99191 27.4420656,16.3649 38.629865,23.87794 l -1.65677,1.90004 c -7.6893102,-3.84835 -33.27329,-19.40415 -39.692506,-24.5901 z"
     id="path14"
     style="stroke-width:0.409115" />
  <path
     d="m 12.899705,154.84767 c 9.864512,-6.16726 14.239464,7.22916 7.88408,10.51834 -6.640991,3.43848 -10.115338,-2.52057 -9.54085,-8.6183 z m 5.481785,8.41704 c 1.950152,-0.51908 3.10854,-2.52384 2.585608,-4.47379 -0.52416,-1.95035 -2.531597,-3.10429 -4.479703,-2.5762 -1.943605,0.52727 -3.0934,2.52671 -2.571287,4.47011 0.522114,1.94422 2.519731,3.09815 4.465382,2.57988 z"
     id="path16"
     style="stroke-width:0.409115" />
  <path
     d="m 201.82425,162.45397 c 2.76687,15.25065 -19.2646,9.24047 -10.15585,-2.43467 2.23903,-2.87072 6.35457,-1.3331 8.67871,0.70152 z m -4.63642,5.99874 c 1.8765,-0.87292 2.69118,-3.10102 1.82044,-4.97775 -0.87114,-1.87754 -3.09831,-2.69523 -4.97685,-1.82518 -1.8806,0.87005 -2.69814,3.10101 -1.82617,4.9806 0.87196,1.88041 3.10281,2.69606 4.98258,1.82233 z"
     id="path18"
     style="stroke-width:0.409115" />
  <path
     d="m 220.37033,31.861987 c 6.00922,-5.878881 10.58794,-5.992188 16.61967,-0.06013 -0.76517,0.891322 -1.14489,1.575255 -2.13019,2.049755 -1.35357,-1.985943 -3.60038,-3.175463 -6.00268,-3.177509 -2.40393,-0.002 -4.65237,1.183794 -6.0088,3.1681 z"
     id="path20"
     style="stroke-width:0.409115" />
  <path
     d="m 166.51447,239.89142 c 2.55083,1.55276 4.36718,2.3095 7.3636,2.80568 -0.13544,1.84564 -0.0724,2.53325 -0.84373,4.24636 -2.39288,-0.71216 -5.23627,-2.37454 -7.27072,-3.79763 0.15508,-1.42432 0.3564,-1.89023 0.75085,-3.25441 z"
     id="path22"
     style="stroke-width:0.409115" />
  <path
     d="m 72.248809,180.46694 c 2.047128,0.31865 4.505072,0.0871 6.173299,0.98418 0.301975,1.91927 -1.714874,2.69033 -3.352003,2.78155 -0.977531,0.0532 -2.640029,-1.2652 -3.455934,-1.85137 z"
     id="path24"
     style="stroke-width:0.409115" />
  <path
     d="m -95.156754,176.60632 2.321237,-0.0155 c 13.777377,9.87899 -7.660323,18.8237 -7.027698,4.18336 0.07654,-1.76342 3.13505,-3.52766 4.706461,-4.16782 z"
     id="path26"
     style="stroke-width:0.409115" />
</svg>
