<svg version="1.1" xmlns="http://www.w3.org/2000/svg" style="display: block;" viewBox="0 0 2048 2048" width="1024" height="1024" preserveAspectRatio="none">
<path transform="translate(0,0)" fill="rgb(15,25,57)" d="M 0 0 L 2048 0 L 2048 2048 L 0 2048 L 0 0 z"/>
<path transform="translate(0,0)" fill="rgb(254,254,254)" d="M 1329.47 432.058 C 1331.08 443.62 1180.69 624.052 1163.61 644.219 C 1169.18 655.29 1178.59 669.211 1184.97 681.18 C 1193.46 697.093 1200.35 717.33 1208.95 731.757 C 1229.4 766.093 1252.1 800.577 1273.75 834.212 C 1275.01 860.209 1269.35 886.185 1244.24 899.51 C 1229.09 907.553 1206.84 913.483 1189.71 909.424 C 1179.01 906.887 1177.15 890.008 1171.38 881.842 C 1155.49 856.577 1115.43 837.899 1086.85 832.403 C 1050.24 825.363 1013.13 820.96 992.547 784.384 C 979.664 761.489 983.305 732.957 990.485 708.208 C 943.147 778.681 965.926 822.176 1018.65 880.737 C 1064.21 931.341 1094.76 975.021 1104.35 1044.46 C 1142.47 1021.86 1178.2 985.192 1203.88 949.181 C 1227.77 948.48 1249.95 941.682 1271.53 931.879 C 1260.7 952.52 1248.22 969.255 1234.72 987.751 C 1188.08 1051.92 1124.96 1101.88 1055.48 1139.36 C 1043.65 1144.7 1027.2 1160.18 1013.7 1153.35 C 891.113 1091.22 800.783 1001.86 745.472 874.246 C 700.788 773.796 701.917 659.483 702.041 551.983 C 710.277 543.16 741.561 529.749 753.619 524.382 C 824.203 492.546 898.571 469.871 974.91 456.908 C 1013.7 450.458 1030.29 448.842 1069.1 457.103 C 1110.52 465.92 1152.84 472.793 1192.68 488.121 C 1179.64 501.163 1159.51 517.304 1144.96 531.022 C 1112.31 523.353 1068.74 514.573 1034.94 513.983 C 974.025 512.922 902.174 533.706 844.947 553.235 C 828.265 558.928 776.423 578.122 762.016 586.628 C 758.951 652.086 764.284 717.667 777.887 781.769 C 813.888 720.288 866.389 669.855 933.909 644.674 C 921.141 645.848 908.148 645.631 895.267 646.667 C 871.236 648.6 850.344 653.553 827.64 660.923 C 881.584 608.727 936.8 586.823 1010.65 581.895 C 1040.27 555.014 1049.51 541.497 1091.85 531.752 C 1084.75 555.033 1083.44 575.536 1088.12 599.406 C 1091.32 600.876 1095.18 601.972 1098.59 603.051 C 1149.99 562.579 1199.9 524.341 1253.14 486.221 C 1282.26 465.371 1296.17 450.802 1329.47 432.058 z"/>
<path transform="translate(0,0)" fill="rgb(15,25,57)" d="M 854.173 799.653 C 854.795 801.708 852.431 831.385 852.144 836.447 C 845.926 946.122 901.933 1014.95 994.975 1065.54 C 986.921 1064.12 977.206 1063.27 968.968 1062.34 C 946.652 1058.17 928.265 1052.71 908.289 1041.5 C 870.214 1020.47 842.058 985.167 830.017 943.368 C 816.281 894.057 829.64 843.138 854.173 799.653 z"/>
<path transform="translate(0,0)" fill="rgb(15,25,57)" d="M 1108.5 681.492 C 1113.93 683.057 1119.23 685.056 1124.34 687.47 C 1143.5 696.667 1150.42 709.318 1156.91 728.176 C 1123.42 726.627 1114.69 711.357 1108.5 681.492 z"/>
<path transform="translate(0,0)" fill="rgb(254,254,254)" d="M 1046.56 1316.42 C 1074.36 1313.57 1103.51 1326.2 1118.22 1350.34 L 1118.04 1322.67 L 1171.03 1322.66 L 1170.97 1450.58 C 1170.97 1477.53 1172.75 1508.8 1167.47 1534.81 C 1157.71 1582.96 1115.1 1607.97 1068.6 1610.27 C 1030.3 1612.16 999.292 1608.76 969.613 1583.05 L 978.393 1562.37 L 985.647 1545.81 C 1004.8 1557.08 1023.47 1563.05 1045.65 1563.99 C 1072.18 1565.12 1102.56 1559.85 1113.2 1531.78 C 1117.9 1519.38 1117.46 1507.53 1117.86 1494.55 C 1085.82 1531.7 1028.04 1535.2 990.377 1504.61 C 939.626 1463.38 944.889 1356.05 1006.87 1326.74 C 1020.61 1320.25 1031.37 1317.71 1046.56 1316.42 z"/>
<path transform="translate(0,0)" fill="rgb(15,25,57)" d="M 1062.15 1363.42 C 1087.76 1363.82 1103.39 1373.29 1116.88 1394.56 C 1118.36 1414.56 1121.65 1445.66 1107.52 1460.5 C 1095 1473.64 1081.57 1478.24 1064.25 1479.56 C 1034.02 1480.33 1012.35 1460.22 1009.61 1430.55 C 1006.2 1393.58 1023 1366.33 1062.15 1363.42 z"/>
<path transform="translate(0,0)" fill="rgb(254,254,254)" d="M 524.001 1248.92 L 579.956 1248.95 L 579.955 1297.55 L 580.025 1372.21 C 580.046 1417.49 582.989 1466.51 548.907 1501.28 C 505.129 1545.73 410.833 1546.88 369.634 1498.18 C 336.257 1458.72 341.971 1404.17 341.967 1355.56 L 342.009 1248.96 L 397.669 1248.95 C 396.974 1282.71 397.314 1316.95 397.463 1350.88 C 397.686 1401.9 386.121 1482.27 460.99 1482.01 C 533.102 1481.75 524.026 1409.83 524.016 1359.58 L 524.001 1248.92 z"/>
<path transform="translate(0,0)" fill="rgb(254,254,254)" d="M 1291.93 1316.42 C 1335.66 1315.73 1377.27 1330.57 1388.5 1377.11 C 1393.63 1398.38 1392.03 1425.09 1392.02 1447.21 L 1391.97 1529.07 L 1340.03 1528.98 L 1339.97 1503.01 C 1311.45 1544.66 1244.72 1543.39 1214.31 1504.53 C 1198.56 1481.48 1200.14 1446.01 1220.4 1426.23 C 1250.04 1397.28 1301.22 1406.05 1339.24 1405.96 C 1337.2 1383.58 1331.23 1367.83 1305.3 1364.32 C 1279.76 1360.87 1259.14 1366.56 1238.49 1381.98 C 1230.75 1370.71 1221.75 1358.91 1213.71 1347.6 C 1236.63 1326.52 1261.55 1318.73 1291.93 1316.42 z"/>
<path transform="translate(0,0)" fill="rgb(15,25,57)" d="M 1286.66 1438.24 C 1303.73 1437.48 1322.77 1437.9 1339.99 1437.92 C 1340.29 1464.88 1335.97 1481.09 1307.91 1490.64 C 1289.01 1494.58 1258.53 1492.7 1254.41 1468.97 C 1253.35 1463.07 1254.81 1457.01 1258.45 1452.25 C 1265.24 1443.2 1276.12 1440.03 1286.66 1438.24 z"/>
<path transform="translate(0,0)" fill="rgb(254,254,254)" d="M 1621.52 1316.41 C 1650.4 1314.02 1681.05 1324.98 1699.78 1347.48 C 1722.28 1374.51 1727.02 1407.91 1724.11 1441.96 L 1576.14 1441.99 C 1578.39 1452.04 1580.8 1461.79 1588 1469.56 C 1615.52 1499.27 1661.27 1493.13 1689.67 1469.91 C 1693.43 1474.06 1697.42 1479.01 1701.08 1483.33 L 1718.06 1503.21 C 1650.61 1562.47 1528.4 1536.24 1522.52 1436.38 C 1518.7 1371.35 1555.53 1322.05 1621.52 1316.41 z"/>
<path transform="translate(0,0)" fill="rgb(15,25,57)" d="M 1623.2 1361.3 C 1654.18 1358.37 1669.95 1377.03 1675.52 1405.18 L 1631.5 1405.1 L 1577.02 1405.16 C 1583.28 1378.68 1595.54 1365.28 1623.2 1361.3 z"/>
<path transform="translate(0,0)" fill="rgb(254,254,254)" d="M 740.016 1316.41 C 740.805 1316.38 741.594 1316.36 742.384 1316.35 C 783.061 1315.94 812.583 1340.38 821.42 1379.68 C 826.679 1403.07 825.176 1427.16 825.146 1451.01 L 825.164 1529.11 L 770.578 1529.07 C 771.305 1488.08 771.645 1443.17 769.515 1402.25 C 767.509 1363.73 720.865 1356.03 692.362 1377.09 C 673.437 1396.8 677.391 1427.63 677.39 1453.29 L 677.554 1529.08 L 623.02 1529.05 L 623.043 1322.7 L 675.966 1322.69 L 675.888 1351.94 C 692.023 1329.48 712.68 1318.76 740.016 1316.41 z"/>
<path transform="translate(0,0)" fill="rgb(254,254,254)" d="M 1296.74 531.647 C 1308.3 533.172 1334.71 545.424 1343.99 552.525 C 1345.42 565.232 1344.33 593.944 1344.36 607.694 C 1344.5 689.097 1337.93 770.274 1312 847.937 L 1308.14 833.009 C 1301.48 811.39 1284.72 786.374 1272.48 767.083 C 1284.07 716.085 1284.75 643.368 1284.65 590.928 C 1278.29 587.246 1264.83 581.212 1257.8 577.713 C 1270.55 563.782 1284.46 546.303 1296.74 531.647 z"/>
<path transform="translate(0,0)" fill="rgb(254,254,254)" d="M 1435.03 1244.07 L 1489.59 1244.08 C 1488.26 1277.86 1489.27 1318.34 1489.26 1352.63 L 1489.43 1529.05 L 1435.01 1529.14 L 1435.03 1244.07 z"/>
<path transform="translate(0,0)" fill="rgb(254,254,254)" d="M 867.868 1322.65 L 921.943 1322.61 L 921.967 1529.08 L 867.924 1529.06 L 867.868 1322.65 z"/>
<path transform="translate(0,0)" fill="rgb(254,254,254)" d="M 890.913 1238.52 C 907.83 1236.26 923.413 1248.04 925.84 1264.94 C 928.267 1281.83 916.632 1297.53 899.763 1300.12 C 882.661 1302.75 866.701 1290.92 864.24 1273.79 C 861.78 1256.66 873.764 1240.82 890.913 1238.52 z"/>
</svg>