<svg version="1.1" xmlns="http://www.w3.org/2000/svg" style="display: block;" viewBox="0 0 2048 2048" width="1024"
     height="1024" preserveAspectRatio="none">
    <path transform="translate(0,0)" fill="rgb(254,254,254)"
          d="M 1329.47 432.058 C 1331.08 443.62 1180.69 624.052 1163.61 644.219 C 1169.18 655.29 1178.59 669.211 1184.97 681.18 C 1193.46 697.093 1200.35 717.33 1208.95 731.757 C 1229.4 766.093 1252.1 800.577 1273.75 834.212 C 1275.01 860.209 1269.35 886.185 1244.24 899.51 C 1229.09 907.553 1206.84 913.483 1189.71 909.424 C 1179.01 906.887 1177.15 890.008 1171.38 881.842 C 1155.49 856.577 1115.43 837.899 1086.85 832.403 C 1050.24 825.363 1013.13 820.96 992.547 784.384 C 979.664 761.489 983.305 732.957 990.485 708.208 C 943.147 778.681 965.926 822.176 1018.65 880.737 C 1064.21 931.341 1094.76 975.021 1104.35 1044.46 C 1142.47 1021.86 1178.2 985.192 1203.88 949.181 C 1227.77 948.48 1249.95 941.682 1271.53 931.879 C 1260.7 952.52 1248.22 969.255 1234.72 987.751 C 1188.08 1051.92 1124.96 1101.88 1055.48 1139.36 C 1043.65 1144.7 1027.2 1160.18 1013.7 1153.35 C 891.113 1091.22 800.783 1001.86 745.472 874.246 C 700.788 773.796 701.917 659.483 702.041 551.983 C 710.277 543.16 741.561 529.749 753.619 524.382 C 824.203 492.546 898.571 469.871 974.91 456.908 C 1013.7 450.458 1030.29 448.842 1069.1 457.103 C 1110.52 465.92 1152.84 472.793 1192.68 488.121 C 1179.64 501.163 1159.51 517.304 1144.96 531.022 C 1112.31 523.353 1068.74 514.573 1034.94 513.983 C 974.025 512.922 902.174 533.706 844.947 553.235 C 828.265 558.928 776.423 578.122 762.016 586.628 C 758.951 652.086 764.284 717.667 777.887 781.769 C 813.888 720.288 866.389 669.855 933.909 644.674 C 921.141 645.848 908.148 645.631 895.267 646.667 C 871.236 648.6 850.344 653.553 827.64 660.923 C 881.584 608.727 936.8 586.823 1010.65 581.895 C 1040.27 555.014 1049.51 541.497 1091.85 531.752 C 1084.75 555.033 1083.44 575.536 1088.12 599.406 C 1091.32 600.876 1095.18 601.972 1098.59 603.051 C 1149.99 562.579 1199.9 524.341 1253.14 486.221 C 1282.26 465.371 1296.17 450.802 1329.47 432.058 z"/>
    <path transform="translate(0,0)" fill="rgb(15,25,57)"
          d="M 854.173 799.653 C 854.795 801.708 852.431 831.385 852.144 836.447 C 845.926 946.122 901.933 1014.95 994.975 1065.54 C 986.921 1064.12 977.206 1063.27 968.968 1062.34 C 946.652 1058.17 928.265 1052.71 908.289 1041.5 C 870.214 1020.47 842.058 985.167 830.017 943.368 C 816.281 894.057 829.64 843.138 854.173 799.653 z"/>
    <path transform="translate(0,0)" fill="rgb(15,25,57)"
          d="M 1108.5 681.492 C 1113.93 683.057 1119.23 685.056 1124.34 687.47 C 1143.5 696.667 1150.42 709.318 1156.91 728.176 C 1123.42 726.627 1114.69 711.357 1108.5 681.492 z"/>
    <path transform="translate(0,0)" fill="rgb(254,254,254)"
          d="M 1296.74 531.647 C 1308.3 533.172 1334.71 545.424 1343.99 552.525 C 1345.42 565.232 1344.33 593.944 1344.36 607.694 C 1344.5 689.097 1337.93 770.274 1312 847.937 L 1308.14 833.009 C 1301.48 811.39 1284.72 786.374 1272.48 767.083 C 1284.07 716.085 1284.75 643.368 1284.65 590.928 C 1278.29 587.246 1264.83 581.212 1257.8 577.713 C 1270.55 563.782 1284.46 546.303 1296.74 531.647 z"/>
</svg>
